<svg width="340" height="323" viewBox="0 0 340 323" fill="none" xmlns="http://www.w3.org/2000/svg">
    <path d="M166.564 0.282836C159.197 1.50189 154.639 3.30397 149.391 7.06713C142.077 12.2614 135.823 21.4838 133.067 31.0772C131.477 36.5364 131.371 47.6669 132.855 52.9671C134.127 57.5783 137.148 63.9386 140.487 69.0798C142.024 71.3589 143.243 73.373 143.243 73.585C143.243 73.744 141.176 74.9631 138.632 76.2881C130.788 80.3693 126.229 83.6025 120.717 89.2207C115.894 94.0439 115.046 95.157 112.343 100.669C110.7 104.008 108.951 108.196 108.474 109.945C107.307 114.291 106.936 125.474 107.679 130.934C111.124 154.467 128.508 183.671 153.366 207.628C157.713 211.815 161.105 215.472 160.946 215.79C160.363 216.691 154.215 219.394 152.73 219.394C151.405 219.394 150.292 218.652 136.989 209.218C115.788 194.112 103.968 189.554 86.0006 189.501C77.2022 189.501 73.28 190.296 66.9197 193.317C57.3793 197.822 51.019 208.529 51.019 220.083C51.019 235.825 62.6796 247.857 81.2834 251.249C83.8805 251.726 89.4457 251.991 97.9261 251.991C115.311 251.991 119.551 251.09 140.222 242.768C145.363 240.701 149.921 239.005 150.292 239.005C150.663 239.005 151.67 239.747 152.571 240.648C153.419 241.549 156.812 244.411 160.151 247.009L166.14 251.726H169.797C171.811 251.726 173.454 251.567 173.454 251.408C173.454 250.666 169.479 244.623 165.981 240.065C163.967 237.362 162.324 235.136 162.43 235.03C162.536 234.977 165.345 234.023 168.684 232.963C172.023 231.85 176.529 230.366 178.702 229.624C181.034 228.829 183.26 228.405 184.108 228.617C184.903 228.776 190.097 231.055 195.662 233.652C212.04 241.443 218.135 243.881 229.637 247.221C240.873 250.454 246.068 251.355 254.548 251.408C263.505 251.461 266.685 250.772 273.576 247.433C281.367 243.616 287.674 235.878 289.529 227.875C292.975 213.352 283.646 198.14 267.162 191.197C254.654 185.95 241.562 185.049 226.245 188.388C216.227 190.561 211.51 192.416 193.86 201.109C187.182 204.395 180.663 207.416 179.444 207.734C177.43 208.37 177.059 208.317 174.885 207.045C170.486 204.448 161.794 194.271 149.868 177.735C142.607 167.611 135.929 153.725 132.749 142.011C131.53 137.506 131.371 135.969 131.371 127.7C131.318 118.531 131.371 118.372 133.014 114.079C139.003 98.4431 153.048 90.8108 173.825 91.8708C186.705 92.5598 197.358 97.2771 205.415 105.916C214.69 115.828 212.729 130.403 200.539 142.541C196.245 146.781 192.164 149.272 187.023 150.756C179.974 152.823 174.143 149.484 171.493 141.852C170.698 139.626 170.539 137.453 170.539 130.456V121.817L169.373 123.142C166.988 125.951 164.444 134.909 164.444 140.739C164.444 147.629 168.207 157.594 172.659 162.576C174.355 164.431 176.422 165.968 179.126 167.293C182.783 169.095 183.631 169.307 188.348 169.466C194.761 169.731 198.948 168.618 204.62 165.067C219.884 155.686 229.637 138.407 229.637 120.969C229.637 109.68 225.715 100.351 217.817 92.6129C211.881 86.8886 201.44 80.7403 193.33 78.3552C186.44 76.2881 186.758 76.9242 190.415 71.995C199.213 60.1224 202.288 51.112 202.235 37.0664C202.182 23.8159 198.206 13.8514 190.521 7.59715C186.599 4.36401 183.896 2.93295 179.762 1.6609C176.316 0.60085 169.108 -0.141183 166.564 0.282836ZM175.945 21.1127C178.331 22.3318 180.875 24.9289 182.253 27.526C183.631 30.0701 183.631 40.0346 182.253 45.0168C177.748 61.3945 167.571 68.3378 159.303 60.7585C155.222 57.0483 153.313 51.4301 153.313 43.1617C153.313 36.9604 154.215 32.9323 156.6 28.4801C160.575 21.0597 169.32 17.6676 175.945 21.1127ZM257.834 207.787C264.565 209.218 269.177 212.663 270.767 217.38C273.046 224.218 269.495 229.306 260.802 231.691C250.573 234.5 227.411 232.168 211.722 226.762C203.507 223.9 198.1 221.09 198.948 220.083C201.44 217.115 223.065 210.013 235.838 208.052C241.615 207.151 254.071 206.992 257.834 207.787ZM104.71 208.847C111.23 210.172 116.742 212.239 122.148 215.419C126.547 217.963 133.173 223.794 133.173 225.066C133.173 226.126 129.25 227.716 122.36 229.465C112.449 231.956 106.406 232.804 98.7211 232.857C85.6826 232.857 76.6722 229.942 72.379 224.271C70.3649 221.673 70.0469 218.387 71.4249 215.684C72.326 213.935 75.7711 211.391 78.8983 210.119C85.3115 207.575 95.912 207.045 104.71 208.847Z" fill="white"/>
    <path d="M210.079 290.152C204.196 291.795 199.531 296.725 198.365 302.449C196.033 313.473 203.613 323.014 214.531 322.961C220.096 322.908 223.541 321.265 227.411 316.76C230.22 313.526 231.439 309.551 231.068 304.94C230.75 300.859 229.319 297.891 226.086 294.552C221.845 290.258 215.803 288.562 210.079 290.152ZM218.93 296.99C226.139 300.753 226.881 310.611 220.255 314.851C217.923 316.336 217.393 316.442 213.948 316.283C210.874 316.124 209.867 315.859 208.33 314.692C202.818 310.505 203.295 300.806 209.231 297.467C211.722 296.036 216.651 295.824 218.93 296.99Z" fill="white"/>
    <path d="M325.412 290.099C321.119 291.265 318.151 294.87 318.151 298.898C318.151 303.456 320.854 306.53 327.002 308.968C333.097 311.406 334.528 313.526 331.613 315.806C329.069 317.82 323.981 316.972 321.066 314.056L319.794 312.784L317.886 314.904L315.924 317.025L317.196 318.35C321.755 323.279 330.5 324.498 335.747 321C339.298 318.562 340.942 313.102 339.139 309.604C337.92 307.272 336.171 305.947 330.712 303.456C326.896 301.654 325.412 300.7 324.935 299.64C324.352 298.368 324.405 298.103 325.836 296.937C327.161 295.771 327.691 295.612 329.97 295.877C331.348 296.089 333.309 296.672 334.316 297.308L336.065 298.368L337.761 296.248C339.775 293.704 339.563 293.227 335.429 291.265C331.984 289.569 328.645 289.198 325.412 290.099Z" fill="white"/>
    <path d="M0.666748 306.318V322.749H11.5322H22.3977V319.569V316.389H14.7124H7.02702V312.943V309.498L13.0163 309.445C16.2494 309.392 19.3766 309.392 19.9066 309.445C20.6486 309.551 20.8076 309.074 20.8076 306.371V303.138H13.9173H7.02702V299.693V296.248H14.7124H22.4507L22.2917 293.174L22.1327 290.152L11.4262 289.993L0.666748 289.887V306.318Z" fill="white"/>
    <path d="M30.8782 306.318V322.749H42.0087H53.1391V319.569V316.389H44.9238H36.7084V303.138V289.887H33.7933H30.8782V306.318Z" fill="white"/>
    <path d="M60.0293 306.318V322.749H63.2094H66.3896V306.318V289.887H63.2094H60.0293V306.318Z" fill="white"/>
    <path d="M75.7709 290.258C75.5589 290.417 75.3999 297.838 75.3999 306.689V322.749H78.58H81.7602L81.8662 312.625L82.0252 302.555L90.5056 312.625C98.7209 322.484 98.9859 322.749 100.947 322.749H102.961V306.318V289.834L99.94 289.993L96.8658 290.152L96.6008 299.958L96.3358 309.763L87.9084 299.799C80.2231 290.788 79.3221 289.887 77.785 289.887C76.884 289.887 75.9299 290.046 75.7709 290.258Z" fill="white"/>
    <path d="M119.922 294.234C118.968 296.672 117.537 300.541 116.742 302.873C115.894 305.205 113.933 310.505 112.29 314.692C110.647 318.88 109.322 322.378 109.322 322.537C109.322 322.643 110.753 322.749 112.502 322.749C114.622 322.749 115.788 322.537 115.947 322.06C116.053 321.742 116.689 320.046 117.272 318.35L118.438 315.276L124.056 315.435L129.727 315.594L130.84 319.039L131.901 322.484L135.505 322.643C138.844 322.802 139.109 322.696 138.738 321.848C138.526 321.318 135.876 314.321 132.802 306.318C129.78 298.315 127.077 291.371 126.865 290.947C126.6 290.47 125.487 290.099 124.003 289.993L121.618 289.834L119.922 294.234ZM126.123 304.251C127.077 306.901 127.713 309.286 127.554 309.551C127.236 310.134 120.452 310.187 120.452 309.604C120.452 308.915 123.897 299.428 124.162 299.428C124.321 299.428 125.222 301.601 126.123 304.251Z" fill="white"/>
    <path d="M148.543 290.311C148.543 290.576 149.656 294.022 151.034 297.891C152.359 301.813 154.691 308.915 156.229 313.738L158.932 322.484H161.794H164.603L166.935 315.064C170.963 302.078 171.228 301.283 171.546 302.078C171.705 302.502 173.242 307.325 175.044 312.784L178.278 322.749H180.822H183.366L188.772 306.954C191.687 298.209 194.125 290.841 194.125 290.523C194.125 289.622 188.083 289.675 187.341 290.576C187.023 290.947 186.122 293.651 185.38 296.566C184.638 299.428 183.366 304.092 182.518 306.848C181.14 311.3 180.928 311.724 180.504 310.558C180.186 309.816 178.437 304.887 176.581 299.534L173.189 289.834L171.334 289.993L169.479 290.152L165.716 301.018L161.9 311.883L159.674 304.728C158.455 300.806 156.971 295.877 156.335 293.863L155.169 290.152L151.882 289.993C150.027 289.887 148.543 290.046 148.543 290.311Z" fill="white"/>
    <path d="M239.177 306.265V322.749H242.092H244.954L245.113 316.76L245.272 310.823L247.233 310.664L249.194 310.505L252.481 316.389C254.336 319.675 256.085 322.431 256.403 322.59C256.774 322.696 258.523 322.749 260.325 322.643L263.558 322.484L259.636 316.389C256.244 311.194 255.82 310.24 256.509 309.763C263.081 305.629 264.247 297.891 258.947 293.015C256.244 290.47 255.184 290.205 247.021 289.993L239.177 289.781V306.265ZM254.283 297.573C255.131 298.368 255.608 299.481 255.608 300.488C255.608 301.495 255.131 302.608 254.283 303.403C253.17 304.569 252.534 304.728 248.982 304.728H245.007V300.488V296.248H248.982C252.534 296.248 253.17 296.407 254.283 297.573Z" fill="white"/>
    <path d="M270.873 290.205C270.607 290.417 270.448 297.838 270.448 306.742V322.855L279.353 322.696C287.091 322.484 288.469 322.325 290.324 321.371C294.512 319.198 296.314 314.268 294.565 309.763C293.769 307.643 292.02 305.629 290.483 305.152C290.218 305.046 290.695 304.198 291.596 303.191C295.148 299.375 294.088 293.651 289.37 291.106C288.045 290.364 285.872 290.152 279.459 289.993C274.954 289.887 271.085 289.993 270.873 290.205ZM286.031 296.831C287.674 298.156 287.833 300.064 286.349 301.548C285.448 302.449 284.6 302.608 281.049 302.608H276.809V299.163V295.718H280.731C283.858 295.718 284.865 295.93 286.031 296.831ZM287.25 309.498C288.84 310.929 289.158 312.413 288.363 314.109C287.356 316.23 285.554 316.919 280.943 316.919H276.809V312.678V308.438H281.473C285.395 308.438 286.349 308.597 287.25 309.498Z" fill="white"/>
    <path d="M303.151 290.258C302.939 290.417 302.78 297.838 302.78 306.689V322.749H305.96H309.14V306.318V289.887H306.331C304.741 289.887 303.31 290.046 303.151 290.258Z" fill="white"/>
</svg>
