<svg width="256" height="243" viewBox="0 0 256 243" fill="none" xmlns="http://www.w3.org/2000/svg">
    <path d="M125.454 0.252803C119.913 1.16977 116.484 2.52529 112.537 5.35594C107.035 9.26302 102.331 16.2001 100.258 23.4162C99.0617 27.5227 98.982 35.895 100.098 39.8818C101.055 43.3504 103.328 48.1345 105.839 52.0018C106.996 53.7161 107.912 55.2311 107.912 55.3906C107.912 55.5102 106.358 56.4271 104.444 57.4238C98.5434 60.4937 95.1148 62.9257 90.9685 67.1517C87.3405 70.7797 86.7026 71.6169 84.6693 75.7632C83.4334 78.2749 82.1177 81.4245 81.7589 82.7402C80.8818 86.0094 80.6027 94.4216 81.1609 98.528C83.7523 116.229 96.8291 138.197 115.527 156.217C118.796 159.367 121.348 162.118 121.228 162.357C120.79 163.035 116.165 165.068 115.049 165.068C114.052 165.068 113.215 164.51 103.208 157.413C87.2607 146.051 78.3701 142.622 64.8548 142.582C58.2367 142.582 55.2864 143.18 50.5022 145.453C43.3259 148.842 38.5417 156.895 38.5417 165.586C38.5417 177.427 47.3128 186.477 61.3065 189.029C63.2601 189.388 67.4462 189.587 73.8251 189.587C86.9019 189.587 90.0914 188.909 105.64 182.65C109.507 181.095 112.936 179.819 113.215 179.819C113.494 179.819 114.252 180.377 114.929 181.055C115.567 181.733 118.119 183.886 120.63 185.839L125.136 189.388H127.886C129.401 189.388 130.637 189.268 130.637 189.148C130.637 188.59 127.647 184.045 125.016 180.617C123.501 178.583 122.265 176.909 122.345 176.829C122.425 176.789 124.538 176.072 127.049 175.274C129.561 174.437 132.95 173.321 134.584 172.763C136.339 172.165 138.013 171.846 138.651 172.005C139.249 172.125 143.156 173.839 147.342 175.793C159.661 181.653 164.246 183.487 172.898 185.999C181.35 188.431 185.257 189.109 191.636 189.148C198.373 189.188 200.766 188.67 205.948 186.158C211.809 183.288 216.553 177.467 217.949 171.447C220.54 160.523 213.523 149.081 201.124 143.858C191.715 139.911 181.868 139.233 170.346 141.745C162.811 143.38 159.263 144.775 145.987 151.314C140.963 153.785 136.059 156.058 135.142 156.297C133.627 156.775 133.348 156.736 131.714 155.779C128.405 153.825 121.866 146.171 112.896 133.732C107.434 126.117 102.411 115.671 100.019 106.86C99.1016 103.472 98.982 102.315 98.982 96.096C98.9421 89.1988 98.982 89.0792 100.218 85.8499C104.723 74.0888 115.288 68.3477 130.916 69.1451C140.604 69.6634 148.618 73.2117 154.678 79.7102C161.655 87.1655 160.18 98.1293 151.01 107.259C147.781 110.449 144.711 112.322 140.844 113.439C135.541 114.994 131.156 112.482 129.162 106.741C128.564 105.066 128.445 103.432 128.445 98.1692V91.6707L127.568 92.6674C125.773 94.7804 123.86 101.518 123.86 105.904C123.86 111.086 126.69 118.582 130.039 122.329C131.315 123.725 132.87 124.881 134.903 125.878C137.654 127.233 138.292 127.393 141.84 127.512C146.664 127.712 149.814 126.874 154.08 124.203C165.562 117.146 172.898 104.149 172.898 91.0328C172.898 82.5408 169.947 75.524 164.007 69.7033C159.542 65.3975 151.688 60.7728 145.588 58.9787C140.405 57.4238 140.644 57.9023 143.395 54.1945C150.013 45.264 152.326 38.4864 152.286 27.9214C152.246 17.9543 149.256 10.4591 143.475 5.75462C140.525 3.32266 138.491 2.24621 135.382 1.28938C132.79 0.492012 127.368 -0.0661428 125.454 0.252803ZM132.511 15.921C134.305 16.838 136.219 18.7915 137.255 20.7451C138.292 22.6587 138.292 30.154 137.255 33.9016C133.867 46.2209 126.212 51.4436 119.993 45.7425C116.923 42.9517 115.487 38.7256 115.487 32.5062C115.487 27.8416 116.165 24.8116 117.959 21.4627C120.949 15.8811 127.528 13.3296 132.511 15.921ZM194.108 156.337C199.171 157.413 202.639 160.005 203.835 163.553C205.55 168.696 202.879 172.523 196.34 174.318C188.646 176.431 171.223 174.676 159.422 170.61C153.243 168.457 149.176 166.344 149.814 165.586C151.688 163.354 167.954 158.011 177.562 156.536C181.908 155.859 191.277 155.739 194.108 156.337ZM78.9283 157.134C83.8321 158.131 87.9784 159.686 92.0449 162.078C95.354 163.992 100.338 168.377 100.338 169.334C100.338 170.131 97.3873 171.327 92.2044 172.643C84.749 174.517 80.2041 175.155 74.4232 175.195C64.6156 175.195 57.838 173.002 54.6086 168.736C53.0937 166.782 52.8544 164.311 53.891 162.277C54.5688 160.962 57.1602 159.048 59.5124 158.091C64.3365 156.177 72.3101 155.779 78.9283 157.134Z" fill="white"/>
    <path d="M158.186 218.292C153.761 219.528 150.252 223.236 149.375 227.542C147.621 235.834 153.322 243.01 161.535 242.971C165.721 242.931 168.313 241.695 171.223 238.306C173.336 235.874 174.253 232.884 173.974 229.415C173.735 226.345 172.658 224.113 170.226 221.601C167.037 218.372 162.492 217.096 158.186 218.292ZM164.844 223.435C170.266 226.266 170.824 233.681 165.841 236.871C164.087 237.987 163.688 238.067 161.097 237.947C158.784 237.828 158.027 237.628 156.87 236.751C152.724 233.602 153.083 226.306 157.548 223.794C159.422 222.717 163.13 222.558 164.844 223.435Z" fill="white"/>
    <path d="M244.939 218.252C241.71 219.129 239.477 221.84 239.477 224.87C239.477 228.299 241.511 230.611 246.135 232.445C250.72 234.279 251.797 235.874 249.604 237.588C247.69 239.103 243.863 238.465 241.67 236.273L240.713 235.316L239.278 236.911L237.803 238.505L238.76 239.502C242.188 243.21 248.767 244.127 252.714 241.495C255.385 239.661 256.621 235.555 255.265 232.924C254.348 231.17 253.033 230.173 248.926 228.299C246.056 226.944 244.939 226.226 244.581 225.429C244.142 224.472 244.182 224.272 245.258 223.395C246.255 222.518 246.654 222.399 248.368 222.598C249.405 222.757 250.88 223.196 251.637 223.674L252.953 224.472L254.229 222.877C255.744 220.963 255.584 220.604 252.474 219.129C249.883 217.854 247.371 217.574 244.939 218.252Z" fill="white"/>
    <path d="M0.666748 230.452V242.811H8.83973H17.0127V240.419V238.027H11.2318H5.45094V235.435V232.844L9.95605 232.804C12.388 232.764 14.7402 232.764 15.1389 232.804C15.6971 232.884 15.8167 232.525 15.8167 230.492V228.06H10.6338H5.45094V225.468V222.877H11.2318H17.0526L16.933 220.565L16.8134 218.292L8.76 218.173L0.666748 218.093V230.452Z" fill="white"/>
    <path d="M23.3916 230.452V242.811H31.7639H40.1363V240.419V238.027H33.9567H27.7771V228.06V218.093H25.5844H23.3916V230.452Z" fill="white"/>
    <path d="M45.3191 230.452V242.811H47.7112H50.1033V230.452V218.093H47.7112H45.3191V230.452Z" fill="white"/>
    <path d="M57.1599 218.372C57.0005 218.491 56.8809 224.073 56.8809 230.731V242.811H59.273H61.665L61.7448 235.196L61.8644 227.621L68.2433 235.196C74.4229 242.612 74.6222 242.811 76.0973 242.811H77.6123V230.452V218.053L75.3399 218.173L73.0275 218.292L72.8282 225.668L72.6288 233.043L66.2898 225.548C60.5089 218.771 59.8311 218.093 58.6749 218.093C57.9972 218.093 57.2795 218.212 57.1599 218.372Z" fill="white"/>
    <path d="M90.3704 221.362C89.6527 223.196 88.5763 226.106 87.9783 227.861C87.3404 229.615 85.8653 233.602 84.6293 236.751C83.3934 239.901 82.3967 242.532 82.3967 242.652C82.3967 242.731 83.4732 242.811 84.7888 242.811C86.3836 242.811 87.2607 242.652 87.3803 242.293C87.46 242.054 87.9384 240.778 88.377 239.502L89.2541 237.19L93.4801 237.309L97.746 237.429L98.5832 240.02L99.3806 242.612L102.092 242.731C104.603 242.851 104.803 242.771 104.524 242.133C104.364 241.735 102.371 236.472 100.058 230.452C97.7859 224.432 95.7526 219.209 95.5931 218.89C95.3938 218.531 94.5565 218.252 93.4402 218.173L91.6462 218.053L90.3704 221.362ZM95.035 228.897C95.7526 230.89 96.231 232.685 96.1114 232.884C95.8722 233.322 90.7691 233.362 90.7691 232.924C90.7691 232.405 93.3605 225.269 93.5598 225.269C93.6794 225.269 94.3572 226.904 95.035 228.897Z" fill="white"/>
    <path d="M111.899 218.412C111.899 218.611 112.736 221.203 113.773 224.113C114.77 227.063 116.524 232.405 117.68 236.033L119.713 242.612H121.866H123.979L125.733 237.03C128.763 227.262 128.963 226.664 129.202 227.262C129.322 227.581 130.478 231.209 131.833 235.316L134.265 242.811H136.179H138.093L142.159 230.93C144.352 224.352 146.186 218.81 146.186 218.571C146.186 217.893 141.641 217.933 141.083 218.611C140.844 218.89 140.166 220.923 139.608 223.116C139.049 225.269 138.093 228.777 137.455 230.851C136.418 234.2 136.259 234.519 135.94 233.641C135.701 233.083 134.385 229.376 132.989 225.349L130.438 218.053L129.043 218.173L127.647 218.292L124.816 226.465L121.946 234.638L120.271 229.256C119.355 226.306 118.238 222.598 117.76 221.083L116.883 218.292L114.411 218.173C113.015 218.093 111.899 218.212 111.899 218.412Z" fill="white"/>
    <path d="M180.074 230.412V242.811H182.266H184.419L184.539 238.306L184.659 233.841L186.134 233.721L187.609 233.602L190.081 238.027C191.476 240.499 192.792 242.572 193.031 242.691C193.31 242.771 194.626 242.811 195.981 242.731L198.413 242.612L195.463 238.027C192.911 234.12 192.592 233.402 193.111 233.043C198.054 229.934 198.931 224.113 194.945 220.445C192.911 218.531 192.114 218.332 185.974 218.173L180.074 218.013V230.412ZM191.436 223.874C192.074 224.472 192.433 225.309 192.433 226.066C192.433 226.824 192.074 227.661 191.436 228.259C190.599 229.136 190.121 229.256 187.449 229.256H184.459V226.066V222.877H187.449C190.121 222.877 190.599 222.997 191.436 223.874Z" fill="white"/>
    <path d="M203.915 218.332C203.716 218.491 203.596 224.073 203.596 230.771V242.891L210.294 242.771C216.115 242.612 217.151 242.492 218.547 241.774C221.696 240.14 223.052 236.432 221.736 233.043C221.138 231.449 219.822 229.934 218.666 229.575C218.467 229.495 218.826 228.857 219.503 228.1C222.175 225.229 221.377 220.923 217.829 219.01C216.832 218.452 215.198 218.292 210.374 218.173C206.985 218.093 204.074 218.173 203.915 218.332ZM215.317 223.316C216.553 224.312 216.673 225.747 215.556 226.864C214.879 227.542 214.241 227.661 211.57 227.661H208.38V225.07V222.478H211.33C213.683 222.478 214.44 222.638 215.317 223.316ZM216.234 232.844C217.43 233.92 217.669 235.037 217.071 236.313C216.314 237.907 214.958 238.426 211.49 238.426H208.38V235.236V232.047H211.889C214.839 232.047 215.556 232.166 216.234 232.844Z" fill="white"/>
    <path d="M228.195 218.372C228.035 218.491 227.916 224.073 227.916 230.731V242.811H230.308H232.7V230.452V218.093H230.587C229.391 218.093 228.314 218.212 228.195 218.372Z" fill="white"/>
</svg>
