<svg width="250" height="95" viewBox="0 0 250 95" fill="none" xmlns="http://www.w3.org/2000/svg">
    <path d="M246.518 0.784679C245.76 0.884446 244.223 1.04407 243.126 1.14384C242.029 1.24361 240.013 1.52296 238.636 1.7624C237.26 2.00184 235.703 2.26124 235.145 2.34105C234.606 2.44082 233.748 2.66031 233.249 2.83989C232.75 3.03942 231.852 3.29882 231.254 3.43849C226.764 4.49603 223.212 5.47375 222.374 5.91272C222.055 6.07235 221.516 6.29184 221.177 6.37165C220.319 6.57119 217.047 7.72849 216.648 7.94798C216.448 8.0677 216.169 8.14751 216.009 8.14751C215.87 8.14751 215.51 8.32709 215.231 8.54658C214.952 8.76607 214.453 8.94565 214.114 8.94565C213.735 8.94565 212.038 9.64402 209.923 10.6417C207.968 11.5795 206.272 12.3377 206.172 12.3377C206.072 12.3377 205.813 12.5173 205.613 12.7368C205.414 12.9563 205.055 13.1359 204.835 13.1359C204.596 13.1359 204.237 13.2556 204.017 13.4152C203.798 13.5549 202.102 14.4728 200.226 15.4305C198.37 16.4083 196.694 17.3062 196.535 17.4259C196.375 17.5656 195.856 17.8649 195.397 18.1043C194.918 18.3437 194.539 18.6031 194.539 18.683C194.539 18.7628 194.3 18.9423 194.001 19.082C192.903 19.5809 192.045 20.1196 191.746 20.4788C191.566 20.6783 191.187 20.9177 190.908 20.9776C190.608 21.0574 190.209 21.2969 190.01 21.4964C189.81 21.6959 189.431 21.9354 189.152 22.0152C188.873 22.095 188.294 22.4143 187.855 22.7335C186.119 24.0105 183.944 25.507 183.844 25.507C183.804 25.507 183.305 25.8462 182.767 26.2453C182.228 26.6643 181.47 27.223 181.071 27.5024C180.352 28.0012 178.716 29.1984 177.339 30.236C176.92 30.5353 176.342 30.9942 176.062 31.2536C175.783 31.4931 175.304 31.8522 175.025 32.0518C174.726 32.2314 174.306 32.5307 174.087 32.7302C173.868 32.9098 171.992 34.4462 169.897 36.1622C167.822 37.8782 165.527 39.7937 164.809 40.4123C162.933 42.0086 157.785 46.6777 156.688 47.7352C156.328 48.0744 153.695 50.6484 150.801 53.4419C147.908 56.2354 144.257 59.9068 142.66 61.6029C141.064 63.2989 138.969 65.5138 137.991 66.4915C137.033 67.4892 135.238 69.4645 134 70.8812C129.371 76.2487 127.037 78.8826 126.777 79.0422C126.618 79.122 126.498 79.3016 126.498 79.4413C126.478 79.581 126.119 80.0399 125.7 80.4789C125.261 80.9178 124.902 81.3369 124.902 81.4167C124.902 81.5164 124.822 81.5763 124.702 81.5763C124.403 81.5763 124.463 81.2171 125.021 79.8004C125.66 78.1244 125.8 77.8251 127.276 74.7722C127.955 73.3954 128.493 72.1583 128.493 72.0186C128.493 71.8789 128.753 71.2604 129.072 70.6418C129.411 70.0232 130.129 68.5666 130.688 67.4093C131.267 66.252 131.826 65.1945 131.945 65.0548C132.045 64.9152 132.484 64.0971 132.903 63.2391C133.322 62.3611 133.761 61.6029 133.881 61.5231C134 61.4433 134.2 61.1839 134.3 60.9644C134.4 60.7249 134.839 59.8869 135.297 59.1286C135.736 58.3505 136.235 57.4126 136.415 57.0335C136.574 56.6544 136.954 55.976 137.253 55.537C137.971 54.4795 138.111 54.2201 139.049 52.3445C140.006 50.4688 140.725 49.1519 141.024 48.8127C141.124 48.673 141.523 48.0146 141.882 47.3561C142.241 46.6976 142.72 45.8795 142.98 45.5603C143.498 44.842 145.134 42.0684 146.531 39.4745C147.01 38.5766 149.305 35.0248 150.003 34.087C150.223 33.8077 150.542 33.2689 150.741 32.8898C150.941 32.5107 151.56 31.513 152.118 30.655C153.256 28.959 154.832 26.4648 155.61 25.1279C155.889 24.6291 156.468 23.8908 156.887 23.4718C157.286 23.0727 157.625 22.6337 157.625 22.514C157.625 22.4143 157.845 21.8955 158.104 21.3767C159.9 17.8649 160.06 15.9493 158.703 13.9939C157.965 12.9164 157.865 12.8366 157.047 12.7767C155.949 12.6969 155.291 13.2756 154.453 15.0514C154.134 15.7498 153.675 16.4681 153.435 16.6677C153.196 16.8672 152.817 17.386 152.597 17.825C152.378 18.2639 151.42 19.6407 150.462 20.8778C149.524 22.1149 148.547 23.4119 148.287 23.7711C148.028 24.1103 147.529 24.7289 147.17 25.108C146.811 25.4871 146.392 26.0258 146.212 26.3052C146.032 26.5845 144.955 27.8815 143.818 29.1984C142.68 30.5154 141.423 32.0119 141.044 32.5307C140.445 33.3488 138.989 35.0248 136.295 37.978C135.896 38.4169 134.998 39.4745 134.3 40.3125C133.621 41.1705 132.983 41.8689 132.883 41.8689C132.783 41.8689 132.664 42.0485 132.584 42.248C132.524 42.4675 131.307 44.1037 129.87 45.8995C126.817 49.7505 126.797 49.7505 125.899 51.0674C125.52 51.6261 124.862 52.524 124.463 53.0428C124.044 53.5816 123.704 54.0804 123.704 54.1602C123.704 54.2201 123.405 54.6391 123.046 55.098C122.667 55.557 121.988 56.5546 121.51 57.3328C121.031 58.0911 120.352 59.0887 119.993 59.5277C119.654 59.9667 119.195 60.6052 118.995 60.9444C118.776 61.3036 118.317 62.0019 117.978 62.5008C117.619 62.9996 117.02 63.8377 116.681 64.3365C115.923 65.394 115.943 65.3541 115.224 66.8107C114.905 67.4093 114.386 68.2673 114.027 68.7063C113.668 69.1453 113.269 69.7239 113.149 69.9833C112.95 70.3225 112.83 70.3824 112.67 70.2228C112.491 70.0432 112.491 69.9035 112.67 69.6242C112.79 69.4246 112.969 68.826 113.029 68.2873C113.109 67.7485 113.249 67.2098 113.329 67.11C113.508 66.8307 115.144 62.7003 115.923 60.5254C116.262 59.5277 116.701 58.4103 116.86 58.0312C117.02 57.6521 117.379 56.6544 117.639 55.8363C117.918 55.0182 118.197 54.1602 118.297 53.9407C118.836 52.7635 119.514 50.7881 119.514 50.4888C119.514 50.2893 119.614 50.0299 119.714 49.9301C119.933 49.7106 120.372 48.5932 121.25 46.0591C121.53 45.241 121.988 44.0638 122.248 43.4652C122.527 42.8666 122.926 41.8689 123.146 41.2703C123.565 40.0731 124.782 37.0401 125.78 34.6856C126.119 33.8675 126.598 32.8898 126.837 32.5107C127.097 32.1316 127.296 31.6926 127.296 31.513C127.296 31.3135 127.376 31.094 127.476 30.9743C127.575 30.8745 127.994 30.0365 128.413 29.0987C128.813 28.1609 129.491 26.6444 129.91 25.7465C130.349 24.8286 130.688 24.0305 130.688 23.9906C130.688 23.7711 132.504 20.1196 132.684 20.0198C132.783 19.96 132.883 19.7205 132.883 19.501C132.883 19.2816 133.103 18.6231 133.362 18.0644C134.18 16.3085 134.679 15.1512 134.679 15.0514C134.679 14.9916 135.078 14.2533 135.577 13.4152C136.076 12.5971 136.475 11.819 136.475 11.7192C136.475 11.36 137.313 9.96328 137.592 9.86351C137.851 9.76374 137.891 9.50435 137.812 8.58649C137.752 7.96793 137.632 7.16979 137.552 6.81063C137.333 6.03244 136.395 4.95496 135.916 4.95496C135.477 4.95496 133.881 6.27188 133.881 6.651C133.881 6.79068 133.761 7.01016 133.601 7.12988C133.442 7.26956 133.242 7.66863 133.162 8.00784C133.103 8.367 132.963 8.72616 132.883 8.84588C132.803 8.94565 132.105 10.3823 131.327 12.0384C130.568 13.6746 129.451 16.069 128.833 17.3261C128.234 18.5832 127.675 19.8403 127.595 20.1196C127.516 20.399 127.276 20.9177 127.077 21.2769C126.877 21.6361 126.338 22.8532 125.879 23.9706C125.42 25.088 124.702 26.7442 124.283 27.6421C123.844 28.5599 123.505 29.398 123.505 29.5576C123.505 29.6973 123.385 29.9766 123.246 30.1961C123.106 30.4156 122.767 31.094 122.527 31.6926C122.288 32.2912 121.649 33.8276 121.111 35.0847C120.572 36.3418 119.814 38.2374 119.414 39.2749C119.015 40.3125 118.556 41.4299 118.397 41.7691C117.898 42.8267 117.12 44.9218 117.12 45.2011C117.12 45.3607 116.821 46.1589 116.441 47.0169C116.062 47.8549 115.563 49.2317 115.304 50.0498C115.045 50.8679 114.725 51.7658 114.586 52.0452C114.446 52.3245 114.326 52.6637 114.326 52.8034C114.326 53.0827 112.95 57.2331 112.331 58.8293C112.092 59.428 111.692 60.6252 111.433 61.4632C111.174 62.3013 110.874 63.1593 110.775 63.3588C110.675 63.5583 110.395 64.2966 110.136 65.0149C109.897 65.7332 109.418 67.0701 109.039 68.0079C108.68 68.9458 108.141 70.5021 107.841 71.4998C107.522 72.4775 107.123 73.6548 106.924 74.0938C106.744 74.5327 106.544 75.1114 106.485 75.3907C106.425 75.6701 106.285 76.149 106.185 76.4882C106.066 76.8074 105.826 77.6255 105.647 78.284C105.467 78.9424 105.248 79.6608 105.148 79.8803C105.048 80.0998 104.789 80.9977 104.549 81.8756C104.31 82.7536 104.03 83.8111 103.911 84.2102C103.472 85.7266 104.749 87.7818 106.305 88.0612C107.003 88.1809 107.223 88.121 107.782 87.6821C108.141 87.4227 108.699 86.6644 108.999 86.0259C109.318 85.3874 109.637 84.729 109.757 84.5693C109.857 84.4097 110.156 83.871 110.435 83.3721C110.914 82.5341 112.351 80.1796 113.309 78.6232C113.548 78.264 113.728 77.845 113.728 77.7253C113.728 77.5856 113.947 77.1466 114.227 76.7476C114.506 76.3485 114.725 75.9095 114.725 75.7698C114.725 75.6501 115.144 74.9518 115.643 74.2334C116.142 73.5151 116.641 72.7369 116.741 72.5174C116.84 72.278 117.04 71.9188 117.16 71.6993C117.299 71.4798 117.878 70.5819 118.437 69.704C118.995 68.826 119.494 68.0079 119.534 67.8882C119.814 67.1499 123.006 62.6604 123.365 62.5207C123.605 62.401 123.804 62.2214 123.824 62.1217C123.864 61.4632 124.243 60.6052 124.802 59.827C125.161 59.3282 125.48 58.8293 125.52 58.7296C125.56 58.6099 126.139 57.7918 126.797 56.8739C127.456 55.956 128.174 54.8786 128.394 54.4795C128.633 54.0804 129.012 53.6614 129.252 53.5417C129.511 53.422 129.691 53.1626 129.691 52.9231C129.691 52.6837 129.83 52.3644 130.03 52.2247C130.209 52.0651 130.588 51.5862 130.868 51.1273C131.606 49.97 134.958 45.8396 136.415 44.2833C137.093 43.5649 137.911 42.5872 138.251 42.1083C138.59 41.6494 138.949 41.2703 139.029 41.2703C139.129 41.2703 139.308 41.0508 139.428 40.7714C139.548 40.5121 139.967 39.9334 140.346 39.5343C140.725 39.1153 141.224 38.5566 141.443 38.2773C141.643 37.9979 141.902 37.8383 141.982 37.9181C142.062 38.0179 141.982 38.2374 141.802 38.4369C141.603 38.6364 141.463 38.9158 141.463 39.0555C141.463 39.1752 141.323 39.3348 141.164 39.3947C141.004 39.4745 140.864 39.674 140.864 39.8536C140.864 40.0332 140.665 40.4921 140.425 40.8712C140.186 41.2503 139.667 42.1482 139.268 42.8666C138.869 43.5849 138.35 44.4828 138.131 44.8619C137.911 45.241 137.353 46.2786 136.874 47.1566C136.395 48.0345 135.677 49.3115 135.258 49.97C134.858 50.6484 134.28 51.7259 133.981 52.3644C132.903 54.7588 132.205 56.1356 131.925 56.4748C131.606 56.8739 130.968 57.9314 130.668 58.6298C130.349 59.3282 129.511 61.0242 129.192 61.6228C127.915 64.0172 123.305 73.7545 123.305 74.0938C123.305 74.2334 123.026 74.9717 122.687 75.71C122.348 76.4682 122.008 77.2664 121.929 77.4858C121.849 77.7053 121.589 78.284 121.35 78.7828C121.111 79.2817 120.791 80.0399 120.632 80.4789C120.492 80.9178 120.193 81.6761 119.973 82.1749C119.734 82.6737 119.315 83.871 119.015 84.8686C118.696 85.8464 118.277 87.0635 118.058 87.5624C117.459 88.999 117.299 90.3758 117.639 91.4732C117.798 91.992 117.998 92.4709 118.078 92.5308C118.157 92.6106 118.397 92.9099 118.596 93.2092C118.776 93.5284 119.255 93.9076 119.634 94.0672C120.213 94.3066 120.392 94.3066 121.091 94.0273C121.689 93.7878 121.889 93.5883 121.988 93.1094C122.048 92.7902 122.328 92.2315 122.627 91.8723C123.864 90.3558 126.438 87.0436 126.837 86.4649C127.077 86.1057 127.755 85.2877 128.334 84.6491C128.932 83.9907 129.631 83.1526 129.89 82.7735C130.149 82.3944 130.948 81.4167 131.646 80.5986C132.364 79.7805 133.003 79.0023 133.103 78.9025C133.901 77.8849 135.617 75.8497 135.796 75.69C135.916 75.5703 136.555 74.852 137.193 74.0938C137.832 73.3156 138.67 72.3778 139.049 71.9787C139.807 71.2205 142.68 68.1077 144.376 66.2121C144.915 65.6135 145.893 64.556 146.531 63.8776C147.19 63.1992 147.808 62.4808 147.908 62.3212C147.988 62.1616 148.527 61.5829 149.065 61.0641C149.624 60.5453 151.659 58.53 153.595 56.5746C155.53 54.5992 157.705 52.4442 158.424 51.7858C159.142 51.1074 160.259 50.0099 160.918 49.3514C161.576 48.693 162.913 47.4758 163.911 46.6577C164.888 45.8396 166.405 44.4828 167.283 43.6647C168.839 42.2081 169.298 41.829 172.171 39.5144C172.89 38.9357 173.528 38.397 173.588 38.3172C173.648 38.2374 174.446 37.5789 175.384 36.8406C176.322 36.1223 177.26 35.3441 177.459 35.1047C177.679 34.8852 177.918 34.6856 178.018 34.6856C178.138 34.6856 178.696 34.2866 179.255 33.7877C179.834 33.2889 180.392 32.8898 180.512 32.8898C180.612 32.8898 180.951 32.6105 181.29 32.2713C181.609 31.9321 182.188 31.4731 182.567 31.2337C182.946 31.0142 183.764 30.3956 184.363 29.8968C184.962 29.398 185.82 28.7395 186.259 28.4402C186.698 28.1409 187.695 27.4425 188.453 26.8838C189.232 26.3251 190.03 25.8063 190.249 25.7066C190.469 25.6268 191.067 25.1878 191.586 24.7289C192.085 24.2699 192.624 23.9108 192.783 23.9108C193.083 23.9108 193.981 23.372 195.657 22.2147C196.275 21.7757 196.934 21.3168 197.113 21.217C197.273 21.0973 197.812 20.7382 198.33 20.399C198.829 20.0797 199.368 19.7405 199.528 19.6607C199.687 19.5809 200.286 19.2416 200.825 18.9224C201.383 18.6031 202.221 18.1442 202.72 17.9247C203.219 17.6853 204.436 17.1066 205.414 16.6477C206.412 16.1688 207.848 15.4704 208.607 15.1113C209.385 14.7521 210.223 14.2932 210.482 14.0937C210.742 13.8941 211.101 13.7345 211.3 13.7345C211.5 13.7345 211.899 13.535 212.218 13.2955C212.537 13.0361 213.455 12.6171 214.293 12.3377C215.111 12.0584 215.969 11.7192 216.189 11.5995C216.408 11.4797 217.047 11.2403 217.606 11.0807C218.164 10.921 218.803 10.6816 219.002 10.5818C219.76 10.1828 220.399 9.96328 221.277 9.74379C221.776 9.62407 222.494 9.40458 222.893 9.24495C223.292 9.08532 223.791 9.02546 224.011 9.06537C224.25 9.12523 224.709 8.9656 225.168 8.6663C225.587 8.38695 226.186 8.14751 226.485 8.14751C226.804 8.14751 227.063 8.0677 227.063 7.96793C227.063 7.86816 227.303 7.74844 227.622 7.68858C229.079 7.40923 234.087 6.13221 234.686 5.87282C235.364 5.59347 235.963 5.43384 239.175 4.67561C240.632 4.3364 241.091 4.13686 241.41 3.71784C241.889 3.13919 242.488 2.85984 243.166 2.93965C243.405 2.95961 244.024 2.79998 244.543 2.58049C245.061 2.34105 245.9 2.16147 246.438 2.16147C247.675 2.16147 249.272 1.82226 249.731 1.44314C250.09 1.16379 250.09 1.16379 249.731 0.864493C249.312 0.545237 248.733 0.525283 246.518 0.784679Z" fill="white"/>
    <path d="M70.748 25.8862C70.5684 26.0857 70.0696 26.3052 69.6505 26.385C69.2315 26.4449 68.7327 26.6843 68.5331 26.8838C68.3536 27.1033 67.9146 27.3827 67.5554 27.5223C67.0167 27.7219 65.2009 29.5576 64.2032 30.9344C64.0237 31.1738 63.6445 31.6727 63.3652 32.0119C62.6269 32.9297 60.2525 36.5014 60.2525 36.7009C60.2525 36.8007 60.1527 36.8805 60.033 36.8805C59.9332 36.8805 59.7137 37.1798 59.5541 37.539C59.4144 37.8982 59.0952 38.3571 58.8557 38.5766C58.6362 38.7761 57.9778 39.7339 57.439 40.7116C56.8803 41.6694 56.3017 42.5473 56.142 42.687C55.9824 42.8067 55.8627 43.0262 55.8627 43.1459C55.8627 43.2856 55.6432 43.6048 55.3639 43.8642C55.0845 44.1236 54.865 44.4429 54.865 44.5826C54.865 44.7023 54.7253 44.9417 54.5258 45.0814C54.3462 45.241 54.0669 45.68 53.8873 46.0591C53.5481 46.7775 53.0493 47.5955 51.5727 49.8503C50.6548 51.267 48.42 55.2377 46.6641 58.6498C46.0456 59.847 45.427 60.9444 45.3073 61.104C45.0878 61.3634 43.3718 64.6757 40.4387 70.5021C39.88 71.5996 39.3412 72.6372 39.2015 72.7968C39.0818 72.9564 38.8025 73.7745 38.6029 74.6126L38.2438 76.129L38.8025 76.8673C39.5008 77.7852 40.4985 77.8849 41.0173 77.0868C41.1969 76.8074 41.6758 76.2487 42.0748 75.8297C42.9129 74.9318 43.8906 73.3954 45.1876 70.9611C45.6864 70.0233 46.2252 69.1253 46.3848 69.0056C46.5444 68.866 46.6841 68.6465 46.6841 68.5068C46.6841 68.3472 46.9036 67.988 47.163 67.6687C47.4224 67.3694 47.7616 66.711 47.9013 66.2121C48.1207 65.4739 48.6794 64.8154 51.0739 62.421C52.6701 60.8247 55.0446 58.6298 56.3615 57.5324C58.3968 55.8563 59.6539 54.7389 60.6316 53.7412C62.8863 51.4266 65.8394 48.0146 65.8394 47.7153C65.8394 47.6155 66.1188 47.2763 66.458 46.9371C67.9345 45.5603 70.0895 42.3278 71.6858 39.1752C73.9605 34.6457 74.0603 34.3464 74.3396 31.8523C74.619 29.2982 74.5192 28.2606 73.8607 26.9038C73.6013 26.405 73.3619 26.1855 72.8631 26.0857C72.4839 26.0059 72.0849 25.8463 71.9651 25.7265C71.6259 25.3873 71.1271 25.4671 70.748 25.8862ZM70.8278 32.6903C70.8278 33.0495 70.2491 34.087 69.0519 35.8629C65.8195 40.7116 65.8195 40.6916 64.323 42.4276C63.864 42.9464 63.1258 43.8044 62.7067 44.3631C61.5095 45.8596 58.7759 48.6531 58.4966 48.6531C58.1174 48.6531 58.2172 48.2141 58.8557 47.2763C59.1949 46.7974 59.4543 46.2986 59.4543 46.1988C59.4543 46.0791 59.6738 45.7598 59.9332 45.4805C60.2125 45.1812 60.6515 44.6424 60.9309 44.2633C61.2102 43.8842 61.6692 43.2457 61.9485 42.8666C62.2279 42.4875 62.8464 41.6295 63.3452 40.971C63.8441 40.3125 64.3828 39.4346 64.5624 39.0155C64.742 38.6165 65.0812 38.1176 65.3206 37.9181C65.5401 37.7385 65.9791 37.2197 66.2784 36.7808C67.0566 35.6235 70.1693 32.4908 70.5285 32.4908C70.6881 32.4908 70.8278 32.5905 70.8278 32.6903Z" fill="white"/>
    <path d="M45.9857 35.2643C45.866 35.3641 44.8084 35.5436 43.5913 35.6634C41.6558 35.8629 38.0642 36.5613 36.408 37.0801C36.0888 37.1798 35.4503 37.2995 35.0113 37.3794C33.6744 37.5789 30.821 38.377 29.6238 38.8759C29.4043 38.9756 28.7858 39.1552 28.2271 39.2749C26.1519 39.7538 22.0016 41.7492 20.8044 42.8466C20.3255 43.2656 19.9464 43.7046 19.9464 43.8243C19.9464 43.9441 19.7868 44.1635 19.5872 44.3032C19.3478 44.4628 19.1283 45.0415 18.9687 45.9594C18.829 46.7176 18.6295 47.7552 18.5497 48.254C18.2703 49.7306 18.3102 51.2071 18.6694 51.7658C18.849 52.0252 18.9687 52.2846 18.9288 52.3046C18.8889 52.3245 17.3524 53.0827 15.5367 53.9806C13.7209 54.8586 12.1047 55.7166 11.9451 55.8762C11.7854 56.0159 11.5061 56.2154 11.3065 56.3352C8.83231 57.8317 5.18083 60.8047 5.18083 61.3235C5.18083 61.4832 4.92143 61.8024 4.60218 62.0618C3.8639 62.6405 2.16785 65.5138 1.52934 67.2098C1.24999 67.9281 0.890831 69.3847 0.691297 70.4822C0.372041 72.4177 0.372041 72.4576 0.771111 72.8766C1.01055 73.116 1.19013 73.555 1.19013 73.8543C1.19013 74.1337 1.38967 74.6724 1.64906 75.0316C3.18548 77.3063 3.70427 77.6654 5.8792 78.0046C9.98962 78.6631 12.404 78.6631 16.7339 78.0844C17.8912 77.9248 19.5673 77.7053 20.4452 77.5856C22.3608 77.3462 23.558 77.0469 24.6355 76.5879C25.6531 76.129 27.7881 75.4107 28.8257 75.1912C31.8985 74.5128 32.8962 74.1137 32.9162 73.555C32.9162 73.3156 26.8902 73.575 26.132 73.8543C25.6132 74.0339 22.9993 74.0938 16.255 74.0938H7.07641L6.23836 73.555C5.20078 72.8766 4.98129 72.4775 4.98129 71.3402C4.98129 69.9434 5.75948 68.7063 9.0518 64.8353C9.47083 64.3365 10.4086 63.4585 11.1469 62.8799C11.8652 62.3212 12.7432 61.6029 13.0824 61.3235C13.4416 61.0442 13.7808 60.8247 13.8606 60.8247C13.9205 60.8247 14.3594 60.5653 14.8184 60.266C15.9956 59.4479 19.3079 57.8317 19.7668 57.8317C19.9863 57.8317 20.7046 57.5922 21.3831 57.3129C22.5004 56.8539 22.7 56.814 23.3784 57.0535C24.3561 57.3727 30.0828 57.4126 31.5194 57.0934C33.0359 56.7741 34.4725 56.3551 34.6322 56.1755C34.712 56.0957 34.9514 56.0359 35.151 56.0359C35.3505 56.0359 35.6697 55.956 35.8693 55.8563C36.6076 55.4772 37.685 55.2377 38.563 55.2377C39.7602 55.2377 40.8576 54.7588 41.5361 53.9607C42.0748 53.3222 42.0748 53.2823 41.8553 51.9254C41.5959 50.3491 40.8976 49.092 39.9996 48.673C38.6827 48.0345 34.3927 48.0944 31.28 48.7728C30.5417 48.9324 29.5241 49.112 28.9853 49.1719C28.4665 49.2317 27.7283 49.4113 27.389 49.5709C27.0299 49.7306 25.9724 50.0698 25.0345 50.3092C23.0791 50.808 22.6002 50.6883 22.7 49.7306C22.8197 48.5333 23.9371 47.1366 25.713 45.9594C26.6508 45.3607 27.5088 44.8619 27.6484 44.8619C27.8679 44.8619 29.9032 44.0239 30.5217 43.6847C30.6814 43.6048 31.5394 43.3654 32.4173 43.1659C33.2953 42.9663 34.9115 42.5872 36.0089 42.3079C37.1064 42.0285 38.6827 41.7292 39.5008 41.6494C40.3189 41.5696 41.5361 41.41 42.1945 41.2703C42.833 41.1506 43.691 41.0707 44.0901 41.1107C44.7885 41.1705 44.7885 41.1905 44.7286 41.9886C44.6688 42.7269 44.7286 42.8666 45.2674 43.2457C45.7063 43.5649 45.8859 43.8642 45.8859 44.2434C45.8859 44.7621 45.9657 44.822 46.8437 44.9218C48.0808 45.0814 49.0386 44.842 50.1759 44.0837C50.6947 43.7445 51.4729 43.2656 51.9318 43.0461C53.3086 42.3478 53.4682 42.1283 53.4682 40.8912C53.4682 39.8137 53.2488 38.7162 52.8497 37.6787C52.6501 37.1798 51.1935 36.2221 49.8766 35.7432C49.4975 35.6035 48.5996 35.4838 47.8813 35.4838C47.143 35.4838 46.4646 35.384 46.3648 35.2842C46.2451 35.1645 46.0855 35.1645 45.9857 35.2643Z" fill="white"/>
    <path d="M73.8806 43.9041C73.6412 44.1635 73.4018 44.6823 73.3219 45.0614C73.2421 45.4406 72.9229 46.2986 72.6036 46.957C72.3043 47.6155 71.9851 48.4136 71.9052 48.7528C71.8254 49.0721 71.6858 49.4512 71.6059 49.5709C71.2867 49.97 70.8278 51.7259 70.8278 52.544C70.8278 53.6414 71.7057 54.6391 72.6834 54.6391C73.0426 54.6391 73.4217 54.699 73.4816 54.7588C73.6412 54.9384 73.302 55.5769 72.6236 56.3551C72.3243 56.7143 71.8254 57.5124 71.5261 58.1509C71.2069 58.8094 70.8078 59.5078 70.6083 59.7272C70.4287 59.9467 70.0695 60.5054 69.8301 60.9843C69.5906 61.4432 69.3113 61.8623 69.2315 61.9221C69.1317 61.982 68.6728 62.82 68.2139 63.7778C67.7549 64.7356 67.2162 65.7332 67.0366 66.0126C66.8371 66.2919 66.6176 66.7309 66.5378 67.0103C66.4579 67.2896 66.2385 67.7286 66.0389 68.0079C65.8593 68.2873 65.58 68.8659 65.4403 69.3049C65.3006 69.7439 65.1011 70.2028 65.0013 70.3225C64.5424 70.9211 65.0413 73.6548 65.7596 74.413C66.019 74.6924 66.2385 75.0316 66.2385 75.1712C66.2385 75.3508 66.4579 75.3907 67.0965 75.291C68.3934 75.0914 68.6129 74.9917 68.7326 74.5726C68.8125 74.3731 68.9322 74.1935 69.0519 74.1935C69.1517 74.1935 69.2913 73.8344 69.3512 73.3954C69.451 72.7369 69.6904 72.4177 70.708 71.5397C71.3665 70.9411 72.3642 70.2028 72.883 69.8636C74.0004 69.1852 75.876 67.3894 76.3549 66.5912C76.6741 66.0725 77.173 65.7133 77.3525 65.8729C77.4324 65.9527 76.714 67.6488 76.4945 67.8683C76.0356 68.3272 75.2175 70.9411 75.2175 71.9388C75.2175 73.2956 75.876 74.7522 76.5943 75.0316C77.0333 75.1912 77.1929 75.1114 77.9512 74.2933C78.4101 73.7745 79.0486 72.8566 79.3479 72.258C79.6472 71.6395 80.0862 70.9012 80.3256 70.6218C80.5451 70.3425 80.8045 69.9035 80.8843 69.6441C80.9641 69.4047 81.1038 69.2051 81.2235 69.2051C81.3233 69.2051 81.5228 68.8859 81.6825 68.5068C81.8421 68.1277 82.0616 67.8084 82.1813 67.8084C82.2811 67.8084 82.6402 67.3694 82.9794 66.8107C83.3186 66.272 83.8175 65.6734 84.0968 65.4938C84.3762 65.3142 84.5957 65.0349 84.5957 64.8952C84.5957 64.4961 85.3738 63.2989 86.5311 61.9022C87.3891 60.8845 87.7284 60.3458 88.6263 58.5699C88.7061 58.3704 88.746 57.6321 88.6662 56.9338C88.5464 55.7366 88.4666 55.5769 87.6685 54.8386C86.3316 53.6015 85.3938 53.821 84.2564 55.6767C83.8574 56.3152 83.4783 56.834 83.3785 56.834C83.2189 56.834 82.6003 57.9713 82.6003 58.2906C82.6003 58.8293 80.2857 61.2437 79.9066 61.104C79.6272 60.9843 78.45 61.7026 78.1507 62.1616C78.0709 62.3012 77.8314 62.421 77.6518 62.421C77.4523 62.421 77.0932 62.5606 76.8338 62.7402C75.4969 63.678 73.6212 64.4762 73.6212 64.117C73.6212 63.7379 75.5567 60.6651 76.4147 59.6474C76.6342 59.388 76.8138 59.0488 76.8138 58.9291C76.8138 58.7894 76.9934 58.53 77.2129 58.3305C77.4324 58.131 77.6119 57.8915 77.6119 57.7918C77.6119 57.692 77.7915 57.3727 78.011 57.0734C78.2305 56.7741 78.4899 56.0359 78.5897 55.4572C78.7293 54.5992 78.6894 54.26 78.3702 53.6215C77.9512 52.7236 77.3925 52.4442 76.0955 52.4442C75.6166 52.4442 75.2175 52.3844 75.2175 52.3245C75.2175 52.2646 75.5368 51.8456 75.9159 51.3867C76.295 50.9477 76.6143 50.4888 76.6143 50.3691C76.6143 50.2493 76.8338 49.9101 77.1131 49.6108C77.3925 49.3115 77.6119 48.9524 77.6119 48.7927C77.6119 48.6531 77.7117 48.4336 77.8115 48.3338C77.9312 48.2141 78.031 47.5357 78.0509 46.7974C78.0908 45.5403 78.0709 45.4406 77.4124 44.7422C76.1753 43.4452 74.6389 43.086 73.8806 43.9041Z" fill="white"/>
    <path d="M102.853 52.3844C100.698 52.8832 98.5431 54.0405 96.887 55.557C96.1287 56.2553 95.4503 56.834 95.3506 56.834C95.2508 56.834 95.171 56.9537 95.171 57.1133C95.171 57.273 94.9714 57.5723 94.712 57.7718C93.9538 58.3704 90.9608 62.3212 90.3023 63.6182C90.1028 63.9973 89.7835 64.7954 89.5641 65.394C89.3645 65.9926 89.1051 66.5713 88.9854 66.711C88.726 67.0103 89.0652 68.7861 89.5641 69.7439C89.9033 70.4223 91.1803 71.4 91.739 71.4C91.9186 71.42 92.2977 71.5397 92.577 71.6993C92.8564 71.859 93.5148 71.9787 94.0336 71.9986C94.9714 71.9986 94.9914 72.0186 95.4304 72.9364C96.5478 75.3309 97.725 76.3485 99.6605 76.6478C100.339 76.7675 100.519 76.7076 100.997 76.2487C101.656 75.6302 101.696 74.9916 101.157 73.994C100.279 72.3578 99.9798 71.6395 99.8002 70.6218C99.6406 69.684 99.6605 69.4645 100.04 68.7662C100.259 68.3272 100.718 67.7485 101.057 67.4692C103.252 65.7133 103.811 65.1945 104.689 64.117C105.247 63.4585 105.766 62.7003 105.846 62.421C105.926 62.1416 106.245 61.6228 106.564 61.2836C106.864 60.9244 107.243 60.246 107.363 59.7871C107.502 59.3082 107.762 58.7495 107.961 58.53C108.48 57.9115 108.041 55.4372 107.163 54.1802C106.824 53.6614 106.445 53.2424 106.345 53.2424C106.245 53.2424 106.026 53.1027 105.846 52.9231C105.327 52.4043 103.891 52.1449 102.853 52.3844ZM104.15 58.2108C104.15 58.4303 103.931 58.8493 103.671 59.1685C103.432 59.4678 103.172 59.827 103.132 59.9667C103.093 60.0864 102.454 60.8646 101.716 61.6827C100.658 62.8599 100.159 63.2391 99.2814 63.5783C98.2039 63.9773 98.1241 63.9973 97.4656 63.678C96.2884 63.1193 96.468 62.84 99.7802 60.0066C100.957 59.0089 101.935 58.4303 102.494 58.4303C102.693 58.4303 103.033 58.2906 103.232 58.131C103.771 57.7119 104.15 57.7518 104.15 58.2108Z" fill="white"/>
    <path d="M65.0013 52.6637C64.702 52.7834 64.0037 53.5018 63.4051 54.2999C62.8264 55.098 62.2478 55.8563 62.1081 55.996C61.9684 56.1356 61.8487 56.3551 61.8487 56.4748C61.8487 56.5946 61.709 56.834 61.5494 57.0136C61.3898 57.1932 60.9109 57.8317 60.5118 58.4303C59.0951 60.5853 56.6608 63.9773 55.6232 65.3142C55.3638 65.6335 54.7652 66.5912 54.2863 67.4093C53.8074 68.2274 53.0692 69.3249 52.6501 69.8437C52.1313 70.4423 51.872 70.981 51.872 71.3601C51.872 71.6794 51.7323 72.2381 51.5327 72.5972C51.2334 73.2358 51.2334 73.2956 51.6325 74.0738C51.872 74.5327 52.0715 74.9717 52.0715 75.0914C52.0914 75.4306 53.548 75.9893 54.3861 75.9893C55.1244 75.9694 55.1842 75.9095 55.6232 75.0316C55.8626 74.5128 56.0622 73.994 56.0622 73.8942C56.0622 73.6947 56.8404 72.4775 57.7782 71.1805C58.0575 70.7615 58.4766 70.0831 58.6761 69.6242C58.8756 69.1652 59.135 68.8061 59.2547 68.8061C59.3545 68.8061 59.4543 68.6265 59.4543 68.427C59.4543 68.2075 59.8533 67.569 60.3322 66.9704C60.8111 66.3917 61.7489 65.0548 62.4074 64.0172C63.0858 62.9797 63.7642 61.9421 63.9438 61.7226C64.1034 61.5031 64.702 60.705 65.2807 59.9467C67.1164 57.5523 67.6352 56.7542 67.6352 56.2753C67.6352 56.0159 67.735 55.6368 67.8547 55.3973C68.134 54.8586 67.6751 53.2823 67.1164 52.9231C66.5378 52.544 65.6199 52.4243 65.0013 52.6637Z" fill="white"/>
    <path d="M164.19 69.2849C164.15 69.3248 163.172 69.4047 162.015 69.4645C160.858 69.5244 159.701 69.6241 159.421 69.684C159.142 69.7439 158.164 69.9035 157.246 70.0033C156.308 70.123 155.47 70.2826 155.351 70.3425C155.231 70.4223 154.872 70.4622 154.553 70.4422C154.233 70.4023 153.774 70.5221 153.515 70.7016C153.256 70.8613 152.936 71.0009 152.817 71.0009C152.457 71.0009 150.163 71.9388 149.365 72.4176C148.986 72.6371 148.487 73.136 148.267 73.5151C147.25 75.251 148.167 77.845 149.903 78.1243C150.542 78.2241 150.801 78.1243 152.018 77.3062C152.777 76.8074 153.535 76.3884 153.715 76.3884C153.894 76.3884 154.393 76.2088 154.832 75.9893C155.271 75.7698 155.79 75.5902 156.009 75.5902C156.229 75.5902 156.448 75.5104 156.508 75.4306C156.608 75.271 157.965 74.852 160.918 74.0538C162.933 73.5151 165.048 72.8367 166.305 72.3378C166.964 72.0784 168.141 71.7392 168.899 71.5995C170.635 71.3002 171.673 70.7815 171.752 70.1828C171.892 69.3248 171.373 69.2051 167.702 69.2051C165.806 69.2051 164.23 69.245 164.19 69.2849Z" fill="white"/>
</svg>
