<svg width="252" height="303" viewBox="0 0 252 303" fill="none" xmlns="http://www.w3.org/2000/svg">
    <g clip-path="url(#clip0_7476_63728)">
        <rect width="252" height="303" fill="white"/>
        <path d="M127.769 98.9395C127.602 98.9432 127.438 98.8887 127.306 98.7859C127.175 98.6831 127.084 98.5382 127.049 98.3759C127.006 98.2236 127.012 98.0613 127.065 97.9127C127.12 97.7653 127.22 97.6365 127.352 97.5485C127.769 96.7211 128.109 91.9823 127.276 89.8011C126.443 87.6187 126.822 81.7143 126.822 81.4889C126.831 81.3898 126.861 81.2944 126.908 81.2065C126.956 81.1198 127.019 81.0417 127.097 80.9786C127.174 80.9166 127.264 80.8696 127.36 80.8398C127.454 80.8114 127.555 80.8014 127.655 80.8114C127.754 80.8213 127.851 80.851 127.938 80.8981C128.027 80.9451 128.104 81.0083 128.168 81.0851C128.231 81.1619 128.278 81.2511 128.307 81.3452C128.336 81.4406 128.346 81.5409 128.336 81.6387C128.336 81.7143 127.806 86.9796 128.676 89.2735C129.548 91.5686 129.395 96.9466 128.676 98.3004C128.609 98.4478 128.509 98.5778 128.386 98.6818C128.261 98.7859 128.115 98.8614 127.957 98.9023L127.769 98.9395Z" fill="#282928"/>
        <path d="M127.731 64.4132C124.664 64.4132 121.144 62.8336 117.207 59.6743C117.052 59.5492 116.953 59.3683 116.932 59.1711C116.911 58.9739 116.969 58.7762 117.093 58.6213C117.219 58.4674 117.402 58.3693 117.6 58.3482C117.799 58.327 117.997 58.3847 118.153 58.5084C123.188 62.5326 127.352 63.8114 130.494 62.2694C138.405 58.4709 138.292 38.7259 138.292 38.5378C138.3 38.3374 138.381 38.1468 138.521 38.0015C138.661 37.8562 138.848 37.7661 139.05 37.748C139.25 37.748 139.442 37.8273 139.584 37.9683C139.727 38.1093 139.806 38.3007 139.806 38.5002C139.844 39.3653 139.92 59.4111 131.176 63.6233C130.104 64.1452 128.924 64.4154 127.731 64.4132Z" fill="#282928"/>
        <path d="M106.381 71.034L106.04 70.9588C105.95 70.9148 105.87 70.8535 105.804 70.7786C105.738 70.7035 105.688 70.6163 105.656 70.5218C105.624 70.4273 105.612 70.3276 105.619 70.2283C105.627 70.1289 105.654 70.0322 105.699 69.9434L107.857 65.6935C108.922 63.6658 109.699 61.5016 110.166 59.2622L112.021 50.0103C111.15 49.3709 109.22 47.7161 108.879 45.7604C108.787 45.2784 108.803 44.782 108.928 44.3073C109.052 43.8324 109.281 43.3909 109.598 43.0149C110.393 41.9618 111.264 41.5105 112.21 41.6233C114.027 41.8867 115.049 44.4441 115.163 44.7073C115.238 44.8919 115.236 45.0985 115.158 45.2818C115.08 45.465 114.932 45.6101 114.746 45.6852C114.561 45.7596 114.353 45.7579 114.168 45.6804C113.984 45.6028 113.838 45.4558 113.762 45.2715C113.497 44.5945 112.74 43.2406 111.983 43.1277C111.226 43.0149 111.112 43.5414 110.772 43.9176C110.596 44.1379 110.468 44.3921 110.397 44.664C110.325 44.9358 110.311 45.2196 110.355 45.4972C110.62 47.0391 112.551 48.5812 113.27 49.07L113.687 49.3334L111.642 59.5631C111.176 61.9554 110.346 64.2633 109.182 66.408L107.024 70.6203C106.971 70.7455 106.881 70.8519 106.767 70.9256C106.652 70.9994 106.517 71.0372 106.381 71.034Z" fill="#282928"/>
        <path d="M133.365 45.1095C133.484 44.4132 133.212 43.787 132.758 43.7108C132.306 43.6345 131.842 44.1372 131.722 44.8336C131.604 45.5299 131.875 46.1561 132.329 46.2323C132.783 46.3086 133.247 45.8059 133.365 45.1095Z" fill="#282928"/>
        <path d="M132.386 46.3991H132.235C131.667 46.2862 131.326 45.5717 131.477 44.782C131.629 43.9544 132.159 43.3904 132.726 43.4656C133.295 43.5408 133.674 44.293 133.522 45.1203C133.371 45.9479 132.916 46.3991 132.386 46.3991ZM131.856 44.8195C131.743 45.4213 131.97 45.9854 132.31 46.023C132.652 46.0607 133.029 45.647 133.143 45.0452C133.257 44.4434 133.029 43.9169 132.689 43.8416C132.349 43.7664 131.932 44.2554 131.856 44.8195Z" fill="#282928"/>
        <path d="M124.031 43.8702C124.149 43.1739 123.878 42.5477 123.424 42.4715C122.971 42.3953 122.507 42.8979 122.389 43.5943C122.27 44.2906 122.542 44.9169 122.995 44.9932C123.449 45.0693 123.912 44.5666 124.031 43.8702Z" fill="#282928"/>
        <path d="M123.036 45.1955H122.923C122.771 45.1639 122.63 45.0959 122.511 44.9975C122.392 44.8992 122.3 44.7735 122.241 44.6313C122.119 44.2938 122.093 43.9295 122.166 43.5782C122.279 42.7509 122.847 42.1867 123.415 42.2995C123.569 42.3243 123.713 42.3897 123.833 42.4889C123.953 42.5881 124.044 42.7175 124.096 42.8637C124.212 43.202 124.251 43.5616 124.21 43.9167C124.058 44.6313 123.566 45.1955 123.036 45.1955ZM123.301 42.6004C122.96 42.6004 122.62 43.0517 122.506 43.6159C122.471 43.8938 122.497 44.176 122.582 44.4433C122.695 44.6313 122.809 44.7818 122.998 44.7818C123.188 44.7818 123.718 44.4056 123.831 43.8039C123.866 43.5258 123.84 43.2437 123.755 42.9765C123.715 42.8935 123.656 42.8203 123.584 42.7619C123.513 42.7035 123.429 42.6612 123.339 42.638C123.339 42.628 123.335 42.6184 123.328 42.6114C123.321 42.6043 123.311 42.6004 123.301 42.6004Z" fill="#282928"/>
        <path d="M136.437 43.0139C136.291 43.0116 136.147 42.9728 136.02 42.901L132.007 41.0958C131.894 41.0467 131.789 40.9756 131.703 40.8866C131.616 40.7975 131.547 40.6924 131.502 40.5769C131.456 40.4616 131.434 40.3384 131.436 40.2145C131.439 40.0905 131.466 39.9683 131.516 39.8547C131.623 39.6313 131.811 39.4565 132.043 39.3657C132.275 39.275 132.533 39.275 132.765 39.3658L136.816 41.2086C136.93 41.257 137.034 41.3284 137.12 41.4183C137.206 41.5081 137.272 41.6146 137.314 41.7311C137.357 41.8475 137.375 41.9713 137.367 42.095C137.359 42.2187 137.327 42.3395 137.269 42.4498C137.198 42.6122 137.082 42.7513 136.935 42.8511C136.788 42.951 136.615 43.0074 136.437 43.0139Z" fill="#282928"/>
        <path d="M120.917 40.3824C120.666 40.4024 120.417 40.3225 120.225 40.1602C120.034 39.998 119.915 39.7667 119.895 39.5174C119.874 39.2681 119.955 39.021 120.118 38.8306C120.281 38.6401 120.514 38.5219 120.765 38.502L125.118 37.7121C125.365 37.6682 125.618 37.7227 125.824 37.8635C126.029 38.0044 126.17 38.2204 126.216 38.4643C126.244 38.5857 126.245 38.7114 126.221 38.8336C126.198 38.9557 126.149 39.0716 126.078 39.1741C126.007 39.2765 125.915 39.3632 125.809 39.4287C125.703 39.4943 125.583 39.5373 125.46 39.555L121.106 40.3448L120.917 40.3824Z" fill="#282928"/>
        <path d="M128.071 51.8152H127.692C127.492 51.7953 127.307 51.6969 127.179 51.5417C127.052 51.3865 126.991 51.1874 127.011 50.9878C127.03 50.7884 127.13 50.605 127.286 50.478C127.442 50.3511 127.643 50.291 127.843 50.3109C128.336 50.3861 128.449 50.2733 128.449 50.2733C128.449 50.2733 128.185 49.0697 127.692 48.3552C127.635 48.2769 127.595 48.188 127.574 48.0938C127.553 47.9996 127.552 47.9022 127.569 47.8072C127.587 47.7124 127.623 47.6221 127.678 47.5417C127.731 47.4613 127.801 47.3927 127.882 47.3398C127.962 47.277 128.054 47.2319 128.152 47.2073C128.251 47.1826 128.354 47.179 128.454 47.1967C128.554 47.2146 128.65 47.2532 128.733 47.3103C128.818 47.3674 128.888 47.4415 128.942 47.5278C129.282 48.0543 130.456 49.8596 129.774 51.0631C129.548 51.4015 129.055 51.8152 128.071 51.8152Z" fill="#282928"/>
        <path d="M126.784 57.5692H126.746C124.929 57.4188 121.522 56.2905 121.295 53.0936C121.28 52.8942 121.345 52.6969 121.477 52.5453C121.608 52.3936 121.795 52.3001 121.995 52.2851C122.196 52.2701 122.395 52.335 122.547 52.4655C122.7 52.596 122.794 52.7814 122.809 52.9808C122.999 55.7264 126.708 56.0648 126.86 56.0648C126.96 56.0742 127.056 56.1032 127.144 56.1499C127.233 56.1967 127.311 56.2604 127.375 56.3374C127.437 56.4143 127.484 56.503 127.513 56.5981C127.542 56.6934 127.552 56.7933 127.541 56.8923C127.522 57.0785 127.435 57.251 127.294 57.3761C127.154 57.5013 126.972 57.5702 126.784 57.5692Z" fill="#282928"/>
        <path d="M124.702 77.4999C124.524 77.5011 124.352 77.4367 124.219 77.3178C124.086 77.2001 124.002 77.0367 123.983 76.8608C122.885 70.5049 123.756 64.0361 123.794 63.7729C123.822 63.5798 123.925 63.4051 124.08 63.2859C124.235 63.1666 124.431 63.112 124.627 63.1335C124.824 63.1614 125.004 63.262 125.13 63.4153C125.256 63.5685 125.319 63.7632 125.308 63.9609C124.791 68.1736 124.842 72.436 125.459 76.6353C125.484 76.8286 125.435 77.023 125.323 77.1828C125.211 77.3426 125.044 77.4553 124.854 77.4999H124.702Z" fill="#282928"/>
        <path d="M139.277 43.9931C139.277 43.9931 148.588 34.0641 136.74 26.0157C123.415 16.9519 115.958 21.9539 110.204 30.1904C104.45 38.4268 108.955 45.7983 108.955 45.7983C108.955 45.7983 110.772 42.2255 112.248 42.1878C113.725 42.1502 115.201 45.2342 115.201 45.2342C115.201 45.2342 117.472 37.938 121.144 36.0951C123.415 34.9668 138.255 36.2079 139.277 43.9931Z" fill="#282928"/>
        <path d="M108.955 46.1733L108.803 45.8724C108.766 45.7972 104.299 38.3129 110.053 30.0764C113.46 25.1872 116.829 22.4417 120.576 21.4263C125.308 20.1475 130.607 21.5766 136.853 25.8265C140.487 28.3088 142.532 31.2423 142.911 34.4768C143.478 39.742 139.466 44.1047 139.427 44.1424L139.163 44.4433L139.087 44.0296C138.784 41.7353 137.232 39.8172 134.468 38.3881C129.548 35.793 122.658 35.5673 121.22 36.282C117.661 38.0496 115.39 45.1955 115.352 45.2706L115.239 45.722L115.012 45.3083C114.595 44.4809 113.308 42.3747 112.248 42.3747C111.15 42.4123 109.636 44.8946 109.144 45.8724L108.955 46.1733ZM123.907 21.351C117.737 21.351 113.649 25.6008 110.355 30.3021C105.396 37.3726 108.198 43.9167 108.955 45.3835C109.447 44.4809 110.923 42.0363 112.21 41.9986H112.248C113.46 41.9986 114.671 43.9167 115.125 44.7441C115.693 43.1645 117.851 37.5607 121.068 35.9435C122.734 35.1161 129.888 35.5298 134.658 38.0496C137.346 39.4788 138.974 41.3216 139.39 43.5782C140.26 42.5252 142.985 38.8395 142.532 34.5143C142.153 31.3928 140.184 28.572 136.626 26.165C131.592 22.7049 127.428 21.351 123.907 21.351Z" fill="#282928"/>
        <path d="M114.253 30.4144C114.171 30.4146 114.089 30.3941 114.016 30.3547C113.943 30.3152 113.882 30.2581 113.837 30.1887C113.743 30.0736 113.697 29.9262 113.712 29.7783C113.726 29.6305 113.798 29.4941 113.913 29.3988L114.329 29.0228C115.541 27.8569 118.342 25.1866 121.559 24.3969C121.705 24.3628 121.858 24.3871 121.986 24.4645C122.113 24.542 122.205 24.6663 122.241 24.8106C122.264 24.8822 122.271 24.958 122.261 25.0325C122.252 25.1071 122.227 25.1789 122.187 25.2431C122.148 25.3071 122.095 25.3621 122.033 25.4044C121.97 25.4465 121.899 25.4748 121.824 25.4875C118.91 26.2021 116.26 28.7219 115.124 29.8127C114.97 29.9852 114.806 30.1484 114.632 30.3015C114.521 30.3777 114.388 30.4171 114.253 30.4144Z" fill="white"/>
        <path d="M132.803 27.8189C132.739 27.8193 132.676 27.806 132.617 27.78C132.558 27.7541 132.506 27.7161 132.462 27.6685C130.23 25.9008 127.315 25.7504 127.276 25.7504C127.125 25.7504 126.982 25.691 126.875 25.5852C126.769 25.4794 126.709 25.3359 126.709 25.1863C126.726 25.0363 126.796 24.8974 126.907 24.7942C127.018 24.6909 127.163 24.63 127.315 24.6221C129.443 24.761 131.484 25.5197 133.182 26.8035C133.289 26.9036 133.355 27.0389 133.369 27.1842C133.384 27.3295 133.344 27.4749 133.258 27.5932C133.207 27.6657 133.139 27.7243 133.059 27.7636C132.98 27.8032 132.892 27.8221 132.803 27.8189Z" fill="white"/>
        <path d="M128.449 241.365L122.734 255.017C122.007 256.717 121.942 258.623 122.551 260.368C123.159 262.112 124.398 263.57 126.027 264.458L154.759 277.809C160.778 281.118 166.153 275.891 162.254 270.25C161.723 269.472 161.041 268.807 160.248 268.294C154.077 264.27 152.298 259.907 155.781 251.106C156.097 250.297 156.084 249.398 155.745 248.598C155.406 247.797 154.768 247.16 153.964 246.819L134.885 238.771C133.685 238.269 132.334 238.262 131.128 238.747C129.922 239.234 128.959 240.175 128.449 241.365Z" fill="white"/>
        <path d="M158.468 279.577C157.043 279.555 155.648 279.167 154.417 278.448L125.648 265.135C123.86 264.146 122.501 262.537 121.83 260.615C121.16 258.694 121.225 256.595 122.014 254.717L127.768 241.102C128.046 240.416 128.462 239.792 128.988 239.268C129.515 238.745 130.143 238.333 130.834 238.057C131.526 237.774 132.268 237.632 133.014 237.638C133.762 237.644 134.502 237.799 135.187 238.094L154.266 246.105C155.249 246.529 156.029 247.313 156.445 248.292C156.861 249.273 156.881 250.376 156.5 251.37C152.941 260.396 155.326 264.195 160.664 267.655C161.542 268.233 162.3 268.973 162.897 269.836C164.789 272.582 164.828 275.665 162.936 277.697C162.363 278.302 161.672 278.783 160.902 279.107C160.133 279.431 159.304 279.592 158.468 279.577ZM126.367 263.781L155.099 277.133C158.203 278.825 160.664 277.96 161.837 276.719C163.01 275.478 163.163 272.845 161.648 270.664C161.159 269.976 160.542 269.389 159.831 268.934C152.941 264.42 151.655 259.531 155.062 250.805C155.19 250.497 155.257 250.166 155.256 249.833C155.256 249.499 155.189 249.168 155.058 248.86C154.928 248.552 154.738 248.273 154.497 248.038C154.258 247.804 153.973 247.62 153.66 247.496L134.581 239.447C133.562 239.034 132.418 239.034 131.4 239.45C130.38 239.865 129.565 240.661 129.131 241.667L123.415 255.282C122.766 256.81 122.709 258.524 123.253 260.092C123.799 261.662 124.907 262.975 126.367 263.781Z" fill="#282928"/>
        <path d="M158.279 279.464C156.857 279.451 155.462 279.076 154.229 278.374L125.497 265.022C124.133 264.265 123.023 263.128 122.303 261.752C121.583 260.374 121.285 258.818 121.446 257.274L121.56 255.996L122.62 256.711C135.037 265.21 162.33 275.703 162.594 275.816L162.86 275.892L163.351 276.832L163.087 277.207C162.518 277.93 161.788 278.511 160.952 278.904C160.118 279.295 159.202 279.487 158.279 279.464ZM126.216 263.705L154.91 277.02C157.598 278.524 159.945 278.073 161.308 276.906C156.954 275.214 134.734 266.375 122.961 258.779C123.059 259.801 123.407 260.784 123.975 261.643C124.542 262.501 125.311 263.21 126.216 263.705Z" fill="#282928"/>
        <path d="M151.313 266.301C152.171 266.301 152.865 265.61 152.865 264.759C152.865 263.907 152.171 263.217 151.313 263.217C150.456 263.217 149.761 263.907 149.761 264.759C149.761 265.61 150.456 266.301 151.313 266.301Z" fill="#282928"/>
        <path d="M151.314 266.451C151.054 266.46 150.794 266.408 150.556 266.301C150.354 266.204 150.172 266.066 150.023 265.899C149.873 265.731 149.758 265.535 149.686 265.323C149.605 265.111 149.57 264.883 149.583 264.657C149.596 264.43 149.657 264.208 149.762 264.006C149.854 263.797 149.989 263.609 150.159 263.453C150.328 263.298 150.528 263.179 150.746 263.105C151.181 262.959 151.656 262.986 152.071 263.179C152.471 263.388 152.781 263.736 152.941 264.157C153.088 264.591 153.061 265.065 152.863 265.479C152.666 265.894 152.313 266.215 151.881 266.376L151.314 266.451ZM151.314 263.406C151.061 263.402 150.812 263.471 150.597 263.605C150.383 263.739 150.211 263.93 150.102 264.157C149.944 264.477 149.919 264.846 150.033 265.183C150.146 265.521 150.388 265.801 150.708 265.962C150.95 266.081 151.223 266.127 151.491 266.091C151.758 266.056 152.01 265.942 152.213 265.765C152.416 265.588 152.561 265.355 152.629 265.095C152.699 264.836 152.689 264.561 152.601 264.307C152.457 263.972 152.204 263.693 151.881 263.518C151.702 263.444 151.509 263.406 151.314 263.406Z" fill="#282928"/>
        <path d="M151.238 268.895H151.012C149.724 268.782 147.452 266.601 146.696 264.795C145.939 262.991 146.506 262.539 146.922 262.049C148.588 260.056 153.434 260.583 153.964 260.621C154.164 260.657 154.344 260.765 154.47 260.925C154.596 261.085 154.658 261.284 154.646 261.486C154.617 261.679 154.515 261.854 154.359 261.973C154.203 262.092 154.007 262.147 153.813 262.125C152.034 261.937 148.93 261.975 148.058 262.991C147.869 263.253 147.869 263.63 148.058 264.156C148.664 265.66 150.633 267.316 151.125 267.39C151.617 267.466 153.585 267.052 154.986 266.788C157.75 266.262 158.204 266.188 158.583 266.375C158.767 266.45 158.915 266.595 158.994 266.778C159.071 266.962 159.074 267.169 158.999 267.353C158.918 267.517 158.786 267.65 158.621 267.732C158.457 267.814 158.271 267.839 158.09 267.804C157.75 267.804 156.311 268.068 155.289 268.256C153.358 268.631 151.995 268.895 151.238 268.895Z" fill="#282928"/>
        <path d="M128.26 244.226C128.26 244.226 137.649 241.894 139.693 249.34C140.563 252.575 134.771 257.388 123.756 254.982L128.26 244.226Z" fill="#DBB3FF"/>
        <path d="M129.434 255.808C127.512 255.798 125.594 255.583 123.718 255.168H123.491L128.109 244.073H128.222C128.298 244.036 137.8 241.779 139.882 249.338C140.185 250.43 139.73 251.708 138.708 252.799C137.118 254.415 133.977 255.808 129.434 255.808ZM124.021 254.868C131.478 256.41 136.323 254.679 138.444 252.498C139.39 251.482 139.769 250.354 139.503 249.377C137.648 242.607 129.358 244.186 128.412 244.374L124.021 254.868Z" fill="#DBB3FF"/>
        <path d="M156.348 210.412L163.276 223.5C164.136 225.135 165.575 226.396 167.315 227.042C169.054 227.687 170.973 227.672 172.702 226.998L201.358 213.571C207.792 211.051 207.187 203.605 200.336 203.003C199.381 202.906 198.416 202.995 197.496 203.267C190.456 205.409 185.988 204.018 181.333 195.706C180.915 194.945 180.213 194.375 179.378 194.122C178.543 193.868 177.64 193.951 176.866 194.352L158.468 203.83C157.309 204.425 156.434 205.452 156.038 206.685C155.64 207.919 155.751 209.26 156.348 210.412Z" fill="white"/>
        <path d="M205.104 211.879C204.172 212.941 202.987 213.754 201.66 214.249L172.966 227.713C171.06 228.453 168.947 228.465 167.033 227.751C165.119 227.036 163.537 225.642 162.594 223.839L155.704 210.751C155.353 210.098 155.14 209.382 155.074 208.645C155.009 207.909 155.095 207.166 155.326 206.464C155.779 205.045 156.77 203.858 158.089 203.153L176.524 193.714C177.474 193.218 178.583 193.114 179.61 193.424C180.637 193.734 181.5 194.432 182.013 195.369C186.744 203.831 191.211 204.433 197.306 202.553C198.31 202.247 199.366 202.144 200.41 202.252C203.742 202.552 206.164 204.508 206.543 207.253C206.631 208.08 206.55 208.918 206.303 209.713C206.055 210.508 205.648 211.245 205.104 211.879ZM172.398 226.321L201.092 212.858C204.385 211.578 205.294 209.133 205.029 207.441C204.764 205.749 202.909 203.982 200.26 203.755C199.404 203.656 198.538 203.747 197.723 204.019C189.849 206.388 185.231 204.244 180.688 196.083C180.36 195.492 179.812 195.052 179.162 194.855C178.512 194.658 177.81 194.721 177.206 195.03L158.808 204.508C158.322 204.752 157.89 205.09 157.54 205.504C157.189 205.918 156.924 206.397 156.765 206.915C156.431 207.961 156.527 209.096 157.029 210.075L163.919 223.162C164.697 224.629 165.991 225.761 167.553 226.343C169.117 226.926 170.841 226.918 172.398 226.321Z" fill="#282928"/>
        <path d="M204.916 211.956C203.983 213.017 202.799 213.831 201.471 214.325L172.815 227.752C169.825 228.917 166.607 228.241 164.222 225.909L163.276 225.006L164.525 224.667C179.024 220.606 204.575 206.427 204.84 206.277L205.067 206.164L206.128 206.351L206.241 206.84C206.434 207.737 206.416 208.666 206.186 209.553C205.956 210.441 205.52 211.263 204.916 211.956ZM172.247 226.359L200.903 212.933C203.743 211.843 204.916 209.736 204.878 208.007C200.752 210.225 179.742 221.583 166.341 225.683C167.19 226.278 168.177 226.65 169.208 226.769C170.24 226.887 171.284 226.747 172.247 226.359Z" fill="#282928"/>
        <path d="M189.055 209.398C189.912 209.398 190.607 208.709 190.607 207.856C190.607 207.004 189.912 206.314 189.055 206.314C188.198 206.314 187.502 207.004 187.502 207.856C187.502 208.709 188.198 209.398 189.055 209.398Z" fill="#282928"/>
        <path d="M190.38 208.946C190.233 209.166 190.022 209.337 189.774 209.434C189.354 209.616 188.879 209.63 188.449 209.472C188.239 209.391 188.047 209.269 187.884 209.114C187.722 208.96 187.592 208.775 187.502 208.569C187.307 208.157 187.281 207.685 187.426 207.253C187.603 206.84 187.928 206.506 188.335 206.313C188.538 206.209 188.762 206.148 188.99 206.136C189.218 206.122 189.446 206.157 189.66 206.237C189.879 206.313 190.078 206.43 190.248 206.586C190.417 206.741 190.552 206.931 190.644 207.14C190.827 207.557 190.841 208.029 190.681 208.457C190.619 208.64 190.516 208.807 190.38 208.946ZM188.032 206.99C187.864 207.183 187.757 207.422 187.723 207.676C187.689 207.93 187.731 208.188 187.843 208.42C187.991 208.74 188.262 208.991 188.593 209.118C188.926 209.244 189.295 209.236 189.622 209.096C189.948 208.941 190.202 208.666 190.329 208.329C190.456 207.993 190.447 207.621 190.304 207.291C190.234 207.13 190.13 206.986 190 206.869C189.87 206.752 189.714 206.666 189.547 206.614C189.377 206.544 189.195 206.512 189.012 206.52C188.83 206.526 188.651 206.57 188.486 206.651C188.307 206.719 188.148 206.837 188.032 206.99Z" fill="#282928"/>
        <path d="M192.235 210.565L192.083 210.716C191.175 211.619 188.032 211.994 186.14 211.431C184.247 210.866 184.285 210.114 184.171 209.512C183.68 206.955 187.2 203.569 187.579 203.194C187.732 203.059 187.93 202.987 188.135 202.994C188.339 203.001 188.533 203.086 188.677 203.231C188.81 203.377 188.881 203.569 188.874 203.766C188.868 203.963 188.783 204.149 188.638 204.284C187.352 205.488 185.421 207.895 185.647 209.25C185.724 209.549 185.989 209.776 186.519 209.963C188.071 210.491 190.607 210.039 190.986 209.663C191.365 209.287 192.311 207.594 192.992 206.353C194.354 203.909 194.582 203.532 194.96 203.344C195.05 203.299 195.147 203.272 195.247 203.265C195.347 203.257 195.448 203.27 195.542 203.302C195.637 203.333 195.726 203.382 195.8 203.448C195.876 203.514 195.939 203.593 195.982 203.683C196.07 203.839 196.096 204.023 196.053 204.197C196.011 204.371 195.905 204.523 195.755 204.624C195.529 204.886 194.847 206.166 194.317 207.067C193.702 208.279 193.007 209.448 192.235 210.565Z" fill="#282928"/>
        <path d="M158.43 212.37C158.43 212.37 162.631 203.719 169.711 206.916C172.777 208.307 172.814 215.792 163.919 222.712L158.43 212.37Z" fill="#DBB3FF"/>
        <path d="M168.197 218.913C166.947 220.367 165.552 221.689 164.033 222.862L163.843 222.975L158.241 212.369V212.293C158.278 212.218 162.594 203.493 169.749 206.727C170.808 207.216 171.49 208.345 171.68 209.848C171.981 212.105 171.111 215.415 168.197 218.913ZM163.957 222.41C169.938 217.71 171.717 212.858 171.338 209.887C171.187 208.533 170.544 207.479 169.635 207.065C163.2 204.17 159.111 211.503 158.657 212.369L163.957 222.41Z" fill="#DBB3FF"/>
        <path d="M95.7047 265.323C92.7521 265.323 90.2537 265.21 88.7396 264.834C83.7049 263.668 68.3738 262.691 62.0143 262.351C61.667 262.333 61.3343 262.208 61.0627 261.991C60.7912 261.775 60.5944 261.481 60.5001 261.149C60.3898 260.823 60.3893 260.471 60.4986 260.146C60.6078 259.82 60.821 259.537 61.1057 259.343C74.2035 250.166 70.6072 214.174 69.2066 200.597C69.0552 198.904 68.9038 197.55 68.8281 196.573C68.071 186.606 70.6829 170.208 70.7965 169.494C70.8103 169.4 70.843 169.309 70.8926 169.227C70.9421 169.146 71.0076 169.075 71.0853 169.018C71.1629 168.962 71.251 168.923 71.3444 168.9C71.4379 168.879 71.5347 168.876 71.6294 168.892C71.7292 168.905 71.8253 168.939 71.9121 168.991C71.9987 169.042 72.0743 169.11 72.1343 169.19C72.1942 169.271 72.2374 169.362 72.2612 169.46C72.285 169.557 72.289 169.659 72.2729 169.758C72.235 169.907 69.5852 186.682 70.3423 196.461C70.418 197.438 70.5693 198.754 70.7208 200.446C72.235 215.527 75.8311 250.881 62.0143 260.584C61.9764 260.584 61.9007 260.622 61.9385 260.735C61.9764 260.848 62.0143 260.848 62.09 260.848C68.4874 261.186 83.9699 262.164 89.0802 263.367C94.1907 264.571 112.815 263.029 119.742 262.427L122.544 262.202C122.744 262.202 122.937 262.281 123.079 262.422C123.221 262.563 123.301 262.754 123.301 262.953C123.301 263.153 123.221 263.345 123.079 263.486C122.937 263.626 122.744 263.705 122.544 263.705L119.894 263.932C114.783 264.346 103.579 265.323 95.7047 265.323Z" fill="#282928"/>
        <path d="M81.1694 179.047C72.3871 179.047 70.4943 176.039 70.2673 175.625C70.1854 175.444 70.1749 175.239 70.238 175.05C70.3012 174.862 70.4332 174.705 70.6079 174.609C70.7799 174.526 70.9769 174.512 71.1594 174.567C71.3419 174.623 71.4965 174.746 71.5921 174.91C71.6678 175.023 73.9391 178.37 85.3712 177.317C97.6361 176.189 116.828 175.136 117.018 175.097C117.216 175.097 117.408 175.171 117.555 175.302C117.702 175.434 117.794 175.616 117.813 175.812C117.818 175.911 117.803 176.01 117.77 176.103C117.736 176.196 117.685 176.283 117.618 176.356C117.551 176.429 117.47 176.488 117.38 176.531C117.29 176.574 117.193 176.597 117.093 176.602C116.904 176.64 97.7497 177.694 85.5226 178.822C83.8949 178.972 82.4565 179.047 81.1694 179.047Z" fill="#282928"/>
        <path d="M92.0336 247.948C91.8854 247.945 91.741 247.901 91.6185 247.818C91.4959 247.735 91.4005 247.618 91.3441 247.482C91.2877 247.346 91.2728 247.196 91.3011 247.051C91.3295 246.907 91.3998 246.773 91.5036 246.668C93.9263 244.262 93.9642 236.062 92.9043 231.249C91.8442 226.434 95.5918 221.884 97.2953 220.868C97.901 219.59 97.901 210.526 97.5603 202.289C97.5552 202.19 97.5698 202.092 97.6032 201.998C97.6366 201.905 97.6882 201.82 97.755 201.747C97.8219 201.672 97.9025 201.613 97.9925 201.571C98.0826 201.529 98.18 201.504 98.2795 201.499C98.4814 201.508 98.6732 201.588 98.8195 201.727C98.9657 201.866 99.0563 202.051 99.0745 202.252C99.0745 202.289 99.2638 206.915 99.3017 211.579C99.3773 221.433 98.6581 221.847 98.1282 222.109C96.8411 222.862 93.3963 226.434 94.3806 230.911C95.5162 236.1 95.5162 244.825 92.5636 247.759C92.4113 247.876 92.2258 247.941 92.0336 247.948Z" fill="#282928"/>
        <path d="M62.5449 150.879C62.5449 150.879 63.4156 174.234 79.6552 172.315C95.8947 170.398 118.305 169.607 118.305 169.607C118.305 169.607 122.166 174.234 124.475 179.612C126.783 184.99 132.992 226.849 129.131 234.522C125.27 242.194 152.336 238.772 156.197 237.982C160.058 237.191 153.472 202.667 153.472 202.667C153.472 202.667 170.544 210.376 178.152 194.844C178.302 194.526 178.379 194.179 178.379 193.828C178.379 193.478 178.302 193.131 178.152 192.813C174.708 185.63 153.66 141.438 151.162 139.67C148.664 137.903 127.201 130.457 114.443 134.669C101.687 138.88 62.5449 150.879 62.5449 150.879Z" fill="#282928"/>
        <path d="M139.769 239.598C134.847 239.598 130.418 239.034 129.018 237.266C128.451 236.476 128.412 235.536 128.98 234.446C132.689 227.036 126.633 185.101 124.324 179.686C122.015 174.27 118.721 170.397 118.229 169.795C116.602 169.87 95.1758 170.659 79.6555 172.502C75.7944 172.954 72.4632 172.014 69.7755 169.719C62.9238 163.89 62.356 151.027 62.356 150.915V150.765H62.4695C62.8859 150.651 101.763 138.692 114.368 134.517C126.973 130.343 148.664 137.714 151.276 139.557C153.889 141.4 174.254 184.2 178.305 192.774C178.472 193.114 178.559 193.487 178.559 193.864C178.559 194.243 178.472 194.616 178.305 194.956C171.301 209.285 156.159 203.981 153.737 203.004C154.646 207.856 160.059 237.454 156.235 238.206C150.791 239.094 145.286 239.559 139.769 239.598ZM118.381 169.418L118.456 169.494C118.494 169.532 122.355 174.195 124.664 179.535C126.973 184.876 133.334 226.66 129.283 234.634C128.828 235.574 128.828 236.363 129.321 237.041C132.349 240.952 152.147 238.62 156.159 237.792C158.847 237.266 155.932 216.506 153.32 202.703L153.244 202.326L153.586 202.478C156.545 203.719 159.722 204.371 162.936 204.396H162.973C169.788 204.358 174.86 201.124 177.963 194.767C178.113 194.482 178.191 194.167 178.191 193.846C178.191 193.525 178.113 193.209 177.963 192.924C166.721 169.231 152.941 141.136 151.049 139.819C148.475 137.978 127.39 130.568 114.519 134.855C102.255 138.879 65.3465 150.237 62.7346 151.027C62.8102 152.457 63.6809 164.04 70.0026 169.457C72.6524 171.675 75.8701 172.578 79.6177 172.127C95.668 170.208 118.078 169.457 118.305 169.418H118.381Z" fill="#282928"/>
        <path d="M152.335 198.228C152.184 198.228 152.041 198.168 151.934 198.062C151.828 197.957 151.768 197.813 151.768 197.663C151.655 187.171 139.465 164.605 137.307 163.175C135.907 162.235 128.146 165.207 123.112 167.613C123.046 167.651 122.972 167.674 122.897 167.682C122.821 167.688 122.744 167.679 122.673 167.654C122.601 167.628 122.535 167.589 122.48 167.537C122.425 167.483 122.383 167.42 122.355 167.35C122.317 167.284 122.293 167.212 122.286 167.137C122.279 167.061 122.289 166.985 122.314 166.914C122.339 166.842 122.379 166.777 122.432 166.723C122.485 166.668 122.549 166.625 122.62 166.598C124.739 165.582 135.49 160.618 137.951 162.235C140.411 163.852 152.79 186.794 152.904 197.663C152.904 197.737 152.889 197.81 152.86 197.88C152.831 197.948 152.79 198.01 152.737 198.062C152.684 198.115 152.622 198.156 152.552 198.184C152.484 198.213 152.41 198.228 152.335 198.228Z" fill="white"/>
        <path d="M142.078 104.318H142.039C141.835 104.299 141.646 104.203 141.512 104.048C141.378 103.894 141.31 103.695 141.32 103.491C141.849 97.3979 142.455 80.8502 139.276 77.2769C135.377 72.8016 124.437 66.8216 124.323 66.7841C124.146 66.6814 124.015 66.5144 123.958 66.3181C123.902 66.1218 123.924 65.9114 124.021 65.7309C124.123 65.5639 124.284 65.4407 124.473 65.3851C124.662 65.3295 124.865 65.3456 125.042 65.43C125.497 65.6934 136.323 71.598 140.412 76.2612C144.5 80.9258 142.91 102.702 142.834 103.603C142.816 103.794 142.73 103.971 142.59 104.102C142.452 104.234 142.268 104.31 142.078 104.318Z" fill="#282928"/>
        <path d="M70.0778 89.8016C69.9025 89.7978 69.7332 89.7371 69.5962 89.6281C69.4594 89.5191 69.3625 89.368 69.3207 89.1996C69.2876 89.0051 69.3324 88.8057 69.4456 88.6435C69.559 88.4824 69.7315 88.371 69.9265 88.3338C72.3491 87.883 77.6866 81.9786 79.5415 79.759C79.673 79.6252 79.8502 79.5447 80.0384 79.5336C80.2267 79.5224 80.4123 79.5806 80.559 79.6983C80.7058 79.816 80.8031 79.9844 80.8319 80.169C80.8607 80.3548 80.8191 80.543 80.715 80.6991C79.9957 81.5649 73.5605 89.1996 70.2293 89.8016H70.0778Z" fill="#282928"/>
        <path d="M141.699 137.827C141.572 137.826 141.448 137.795 141.336 137.735C141.224 137.677 141.128 137.591 141.056 137.489C137.195 131.885 137.346 117.142 137.346 116.502C137.355 116.306 137.438 116.12 137.577 115.98C137.718 115.842 137.905 115.76 138.102 115.75H138.141C138.241 115.755 138.338 115.78 138.428 115.822C138.517 115.864 138.598 115.923 138.666 115.996C138.732 116.071 138.784 116.156 138.817 116.249C138.85 116.342 138.865 116.441 138.86 116.54C138.86 116.69 138.747 131.433 142.305 136.661C142.367 136.737 142.412 136.826 142.437 136.921C142.462 137.017 142.464 137.116 142.447 137.212C142.428 137.309 142.39 137.401 142.332 137.481C142.275 137.56 142.201 137.627 142.115 137.677C142.059 137.728 141.994 137.767 141.922 137.793C141.851 137.819 141.775 137.83 141.699 137.827Z" fill="#282928"/>
        <path d="M136.853 100.18C136.665 100.181 136.483 100.112 136.343 99.9865C136.203 99.8614 136.115 99.6892 136.096 99.5034L135.339 89.4992C135.328 89.4014 135.338 89.3036 135.368 89.2107C135.397 89.1178 135.444 89.0323 135.508 88.958C135.573 88.8837 135.651 88.823 135.738 88.7809C135.827 88.7375 135.923 88.714 136.02 88.709C136.12 88.6991 136.221 88.7078 136.317 88.7363C136.413 88.7648 136.501 88.8118 136.579 88.875C136.657 88.9382 136.721 89.015 136.768 89.1029C136.814 89.1908 136.844 89.2874 136.853 89.3865L137.611 99.3523C137.621 99.4514 137.612 99.5517 137.583 99.6471C137.555 99.7412 137.507 99.8304 137.444 99.9072C137.38 99.984 137.302 100.048 137.213 100.095C137.126 100.141 137.029 100.171 136.929 100.18H136.853Z" fill="#282928"/>
        <path d="M138.52 123.724C138.336 123.727 138.159 123.664 138.02 123.546C137.881 123.428 137.789 123.265 137.762 123.085C137.729 122.891 137.774 122.691 137.886 122.53C138 122.368 138.173 122.256 138.368 122.221C138.633 122.182 165.471 117.406 172.626 112.743L170.734 105.184C170.705 105.09 170.696 104.99 170.707 104.894C170.72 104.796 170.751 104.702 170.801 104.618C170.851 104.533 170.917 104.459 170.997 104.401C171.076 104.344 171.167 104.302 171.263 104.281C171.361 104.252 171.462 104.244 171.563 104.255C171.662 104.266 171.76 104.297 171.848 104.345C171.937 104.395 172.014 104.46 172.076 104.54C172.139 104.619 172.183 104.711 172.21 104.807L174.368 113.382L173.951 113.683C167.213 118.61 139.806 123.499 138.633 123.687L138.52 123.724Z" fill="#282928"/>
        <path d="M165.661 116.99C165.494 116.994 165.33 116.939 165.199 116.836C165.067 116.734 164.976 116.589 164.941 116.427L162.897 108.641C162.869 108.547 162.861 108.449 162.872 108.351C162.883 108.254 162.916 108.16 162.964 108.075C163.014 107.99 163.081 107.917 163.161 107.859C163.24 107.801 163.331 107.76 163.427 107.738C163.524 107.709 163.626 107.701 163.726 107.712C163.827 107.723 163.924 107.754 164.013 107.803C164.1 107.853 164.178 107.919 164.24 107.998C164.302 108.077 164.348 108.168 164.374 108.265L166.38 116.05C166.409 116.144 166.417 116.243 166.405 116.34C166.394 116.438 166.363 116.531 166.313 116.616C166.263 116.7 166.196 116.775 166.117 116.832C166.037 116.89 165.946 116.931 165.85 116.953L165.661 116.99Z" fill="#282928"/>
        <path d="M165.358 114.208C165.194 114.2 165.037 114.141 164.908 114.04C164.78 113.938 164.685 113.801 164.639 113.645C164.61 113.548 164.601 113.446 164.613 113.347C164.624 113.247 164.655 113.15 164.704 113.064C164.754 112.976 164.82 112.899 164.899 112.837C164.979 112.775 165.071 112.731 165.169 112.705L172.513 110.71C172.61 110.682 172.711 110.673 172.812 110.684C172.912 110.696 173.009 110.727 173.097 110.776C173.186 110.824 173.263 110.891 173.326 110.97C173.387 111.05 173.433 111.14 173.459 111.237C173.505 111.426 173.476 111.627 173.378 111.795C173.278 111.964 173.117 112.086 172.929 112.14L165.585 114.171L165.358 114.208Z" fill="#282928"/>
        <path d="M165.661 108.34C165.561 108.35 165.461 108.34 165.366 108.311C165.27 108.283 165.181 108.236 165.104 108.173C165.027 108.111 164.962 108.033 164.914 107.946C164.867 107.858 164.838 107.763 164.828 107.664C164.818 107.565 164.828 107.464 164.857 107.37C164.886 107.275 164.933 107.187 164.997 107.11C165.059 107.033 165.138 106.969 165.226 106.922C165.313 106.875 165.411 106.846 165.509 106.836L171.604 105.708C171.805 105.673 172.009 105.717 172.179 105.829C172.347 105.941 172.467 106.113 172.513 106.31C172.545 106.503 172.5 106.704 172.388 106.865C172.275 107.027 172.102 107.137 171.907 107.174L165.812 108.34H165.661Z" fill="#282928"/>
        <path d="M71.5162 90.5895C78.1787 90.0259 83.7054 92.8834 83.7054 92.8834C94.1533 99.8046 97.6359 94.6137 108.916 89.1601C120.197 83.7078 126.633 96.344 130.683 100.97C134.734 105.596 124.285 119.963 127.2 126.62C130.115 133.276 128.071 137.264 124.588 138.993C121.106 140.723 117.358 135.834 98.2037 147.907C79.0493 159.979 70.6456 155.691 70.6456 155.691C30.0656 144.446 49.22 100.97 49.22 100.97L71.5162 90.5895Z" fill="#DBB3FF"/>
        <path d="M75.2258 156.67C72.3109 156.67 70.7967 155.993 70.6075 155.88C59.4405 152.796 51.7559 146.967 47.7434 138.579C39.8697 122.107 48.9548 101.083 49.0304 100.895V100.82H49.0683L71.4403 90.4401H71.4782C75.7005 90.1527 79.9257 90.9566 83.743 92.7711C91.9953 98.2247 95.8186 96.0806 102.746 92.2447C104.525 91.2291 106.494 90.1391 108.803 89.0107C118.38 84.3846 124.512 92.5841 128.563 98.0364C129.358 99.0904 130.115 100.105 130.797 100.895C132.916 103.302 131.213 108.229 129.395 113.457C127.579 118.685 125.951 123.386 127.351 126.582C129.888 132.374 128.866 137.076 124.626 139.181C123.642 139.708 122.582 139.671 121.295 139.633C117.85 139.521 112.096 139.37 98.2791 148.133C87.1121 155.165 79.579 156.67 75.2258 156.67ZM49.3332 101.12C48.8033 102.4 40.5132 122.558 48.0841 138.43C52.0588 146.703 59.6675 152.458 70.7211 155.505H70.7589C70.8346 155.542 79.3141 159.603 98.0899 147.719C112.02 138.919 117.85 139.069 121.333 139.181C122.657 139.22 123.604 139.257 124.512 138.768C126.443 137.828 130.569 134.706 127.011 126.658C125.572 123.348 127.351 118.196 129.092 113.231C130.834 108.267 132.537 103.34 130.531 101.046C129.85 100.293 129.092 99.2403 128.298 98.1875C124.323 92.8467 118.304 84.7983 109.03 89.2733C106.721 90.4017 104.714 91.4929 102.973 92.4701C95.8944 96.42 92.0332 98.6012 83.5916 93.0349C79.8606 91.2464 75.7244 90.4549 71.5917 90.741L49.3332 101.12Z" fill="#DBB3FF"/>
        <path d="M110.847 107.89C110.847 107.89 116.071 106.725 116.677 115.074C117.283 123.424 109.977 123.16 105.661 122.558C101.346 121.956 101.308 108.454 110.847 107.89Z" fill="#282928"/>
        <path d="M108.993 123.01C107.865 123.004 106.739 122.916 105.624 122.746C103.769 122.521 102.557 120.076 102.671 116.842C102.822 112.517 105.396 108.04 110.847 107.702C111.422 107.602 112.01 107.621 112.577 107.757C113.144 107.892 113.676 108.143 114.141 108.492C115.731 109.658 116.639 111.878 116.866 115.074C117.093 118.271 116.412 119.85 115.012 121.167C113.611 122.482 111.188 123.01 108.993 123.01ZM111.491 108.003C111.299 108.001 111.108 108.026 110.923 108.079H110.885C105.661 108.38 103.201 112.705 103.049 116.879C102.936 119.85 104.034 122.181 105.661 122.37C108.463 122.746 112.475 123.01 114.747 120.903C116.071 119.662 116.639 117.706 116.488 115.074C116.336 112.441 115.39 109.922 113.914 108.831C113.219 108.299 112.368 108.008 111.491 108.003Z" fill="#282928"/>
        <path d="M82.6459 119.586C82.4786 119.59 82.3155 119.536 82.1842 119.432C82.0529 119.33 81.9618 119.185 81.9266 119.022C81.898 118.926 81.889 118.825 81.9002 118.725C81.9114 118.625 81.9426 118.528 81.992 118.441C82.0414 118.353 82.108 118.277 82.1878 118.215C82.2676 118.153 82.359 118.108 82.4566 118.082L91.8446 115.788C91.9415 115.766 92.042 115.762 92.1401 115.778C92.2382 115.795 92.3322 115.83 92.4165 115.882C92.5009 115.935 92.574 116.004 92.6318 116.084C92.6895 116.165 92.7307 116.255 92.753 116.352C92.7755 116.449 92.7786 116.548 92.7621 116.645C92.7458 116.743 92.7102 116.836 92.6574 116.92C92.6047 117.003 92.5359 117.076 92.4549 117.133C92.3738 117.192 92.2822 117.233 92.1852 117.255L82.8352 119.549L82.6459 119.586Z" fill="#282928"/>
        <path d="M83.2133 122.858C83.0461 122.862 82.8828 122.807 82.7515 122.705C82.6203 122.602 82.5293 122.457 82.4941 122.295C82.4654 122.198 82.4563 122.096 82.4676 121.997C82.4788 121.897 82.5101 121.8 82.5594 121.713C82.6088 121.626 82.6754 121.549 82.7552 121.487C82.8349 121.425 82.9264 121.379 83.0241 121.353L95.4025 118.082C95.4995 118.06 95.5998 118.056 95.6979 118.072C95.7962 118.09 95.89 118.124 95.9744 118.176C96.0588 118.23 96.132 118.298 96.1897 118.378C96.2475 118.459 96.2887 118.549 96.311 118.646C96.3395 118.74 96.3481 118.839 96.3365 118.936C96.3249 119.033 96.2932 119.128 96.2435 119.212C96.1937 119.296 96.127 119.37 96.0475 119.429C95.968 119.486 95.8772 119.528 95.7811 119.549L83.4026 122.821L83.2133 122.858Z" fill="#282928"/>
        <path d="M83.5912 125.152C83.4257 125.15 83.2659 125.093 83.1359 124.991C83.006 124.89 82.9133 124.747 82.8719 124.589C82.8257 124.389 82.8589 124.18 82.9649 124.004C83.0707 123.829 83.241 123.702 83.4398 123.649L98.5438 119.85C98.7395 119.8 98.9472 119.829 99.1211 119.932C99.295 120.034 99.4209 120.2 99.4711 120.395C99.5214 120.589 99.4917 120.796 99.3887 120.968C99.2859 121.142 99.1181 121.267 98.9222 121.316L83.7805 125.115L83.5912 125.152Z" fill="#282928"/>
        <path d="M80.4123 132.713L76.9297 115.035L82.1915 114.208L85.6741 131.509L80.4123 132.713ZM78.7088 116.276L81.5857 130.87L83.8949 130.343L80.9801 115.938L78.7088 116.276Z" fill="#282928"/>
        <path d="M114.633 109.32L194.354 94.6143L196.096 101.835L115.806 116.804L114.633 109.32Z" fill="white"/>
        <path d="M115.162 117.705L113.762 108.716L194.921 93.748L197.042 102.436L115.162 117.705ZM115.503 109.92L116.412 115.938L195.187 101.232L193.786 95.4784L115.503 109.92Z" fill="#282928"/>
        <path d="M120.614 111.69C120.441 111.693 120.273 111.632 120.141 111.522C120.009 111.412 119.922 111.258 119.894 111.088C119.861 110.894 119.906 110.694 120.019 110.532C120.133 110.371 120.305 110.26 120.5 110.224L177.396 99.3538C177.595 99.3203 177.801 99.3637 177.971 99.4752C178.139 99.5879 178.259 99.7588 178.304 99.9557C178.337 100.15 178.292 100.35 178.179 100.511C178.065 100.673 177.893 100.784 177.699 100.82L120.765 111.69H120.614Z" fill="#282928"/>
        <path d="M198.139 104.129L211.729 104.393C212.027 104.399 212.321 104.325 212.582 104.18C212.841 104.033 213.057 103.822 213.205 103.565L216.954 97.4726C217.145 97.1407 217.222 96.7555 217.175 96.3752C217.127 95.9962 216.957 95.642 216.689 95.367L211.616 90.3271C211.411 90.1352 211.165 89.994 210.894 89.9159C210.625 89.8379 210.34 89.823 210.064 89.8751L196.133 92.5455C195.912 92.5863 195.7 92.6706 195.511 92.7932C195.322 92.9158 195.16 93.0743 195.033 93.2589C194.906 93.4447 194.817 93.6528 194.772 93.8732C194.727 94.0925 194.727 94.3191 194.771 94.5396L196.474 102.775C196.559 103.154 196.769 103.493 197.071 103.739C197.374 103.984 197.749 104.121 198.139 104.129Z" fill="#282928"/>
        <path d="M211.767 104.581H211.73L198.14 104.317C197.704 104.317 197.28 104.168 196.942 103.893C196.604 103.619 196.372 103.238 196.285 102.813L194.62 94.5764C194.559 94.3324 194.551 94.0797 194.597 93.8333C194.643 93.5868 194.741 93.3527 194.884 93.1471C195.169 92.7371 195.604 92.4547 196.096 92.3569L210.026 89.6864C210.331 89.6258 210.648 89.6419 210.946 89.7335C211.244 89.8252 211.513 89.9911 211.73 90.2141L216.803 95.2527C217.108 95.5438 217.306 95.9302 217.361 96.3476C217.416 96.765 217.326 97.1886 217.104 97.5478L213.396 103.64C213.222 103.917 212.983 104.148 212.699 104.312C212.416 104.475 212.095 104.568 211.767 104.581ZM198.14 103.941L211.73 104.204C211.997 104.199 212.257 104.128 212.489 103.996C212.72 103.865 212.914 103.678 213.054 103.452L216.764 97.3595C216.954 97.0759 217.035 96.7341 216.994 96.3959C216.951 96.059 216.79 95.7469 216.537 95.5165L211.465 90.4767C211.295 90.2934 211.079 90.1571 210.84 90.0853C210.601 90.0122 210.345 90.0048 210.102 90.063L196.172 92.7334C195.972 92.7668 195.781 92.8411 195.612 92.9514C195.444 93.0616 195.299 93.2053 195.187 93.3725C194.964 93.7045 194.883 94.1095 194.96 94.5009L196.664 102.738C196.739 103.073 196.926 103.373 197.194 103.592C197.461 103.81 197.794 103.933 198.14 103.941Z" fill="#282928"/>
        <path d="M85.3335 101.534L100.135 102.701C103.617 102.964 109.144 108.755 109.144 108.755C109.144 108.755 112.021 112.216 111.453 114.774C111.453 114.774 111.983 118.534 106.948 118.157C106.948 118.157 106.57 121.242 104.526 120.602C104.526 120.602 100.248 121.354 98.734 120.602C97.2198 119.851 90.4817 114.585 88.7783 113.946C87.0748 113.306 80.791 111.99 80.791 111.99L85.3335 101.534Z" fill="white"/>
        <path d="M100.967 121.692C99.9827 121.692 98.9984 121.58 98.3928 121.24C97.7871 120.902 96.008 119.737 94.1153 118.383C92.2226 117.029 89.3834 114.959 88.5127 114.621C86.9229 114.019 80.7147 112.741 80.639 112.741L79.7305 112.553L84.8787 100.744H85.4087L100.21 101.909C103.92 102.21 109.446 107.927 109.673 108.19H109.711C109.825 108.34 112.74 111.876 112.21 114.772C112.249 115.281 112.185 115.793 112.023 116.277C111.86 116.761 111.602 117.209 111.263 117.593C110.431 118.457 109.219 118.871 107.591 118.871C107.402 119.511 107.024 120.488 106.191 121.015C105.943 121.18 105.663 121.289 105.368 121.334C105.074 121.379 104.774 121.36 104.487 121.279C103.325 121.498 102.149 121.635 100.967 121.692ZM81.8504 111.463C83.7052 111.838 87.7179 112.704 89.0806 113.23C90.4433 113.757 92.0332 115.035 95.0237 117.142C96.6894 118.344 98.4306 119.585 99.0741 119.925C99.7177 120.263 102.822 120.112 104.374 119.849H104.752C104.854 119.896 104.967 119.917 105.079 119.911C105.191 119.904 105.3 119.87 105.396 119.812C105.926 119.473 106.153 118.42 106.229 118.043L106.304 117.367H107.024C108.5 117.48 109.56 117.216 110.128 116.615C110.543 116.122 110.747 115.487 110.696 114.847V114.584C111.112 112.778 109.295 110.108 108.576 109.206C107.062 107.626 102.67 103.601 100.058 103.414L85.8251 102.286L81.8504 111.463Z" fill="#282928"/>
        <path d="M110.847 111.988C110.713 111.986 110.582 111.947 110.469 111.876C108.765 110.784 103.958 109.279 103.92 109.279C103.823 109.255 103.732 109.21 103.653 109.147C103.575 109.085 103.51 109.007 103.464 108.918C103.418 108.83 103.39 108.732 103.384 108.633C103.378 108.534 103.393 108.433 103.428 108.339C103.454 108.243 103.499 108.152 103.562 108.073C103.624 107.994 103.701 107.927 103.789 107.879C103.877 107.829 103.975 107.798 104.075 107.787C104.176 107.776 104.277 107.784 104.374 107.813C104.563 107.888 109.409 109.393 111.264 110.596C111.349 110.649 111.423 110.72 111.481 110.802C111.539 110.885 111.58 110.978 111.601 111.075C111.622 111.173 111.623 111.275 111.604 111.374C111.585 111.472 111.547 111.566 111.491 111.649C111.421 111.755 111.325 111.841 111.213 111.9C111.1 111.96 110.975 111.989 110.847 111.988Z" fill="#282928"/>
        <path d="M110.961 116.465C110.852 116.47 110.744 116.447 110.645 116.401C110.546 116.356 110.46 116.288 110.393 116.202C110.015 115.75 107.895 114.998 106.116 114.509C106.019 114.488 105.929 114.446 105.849 114.389C105.769 114.331 105.703 114.256 105.653 114.172C105.603 114.088 105.572 113.994 105.56 113.896C105.549 113.799 105.557 113.7 105.586 113.606C105.612 113.509 105.657 113.419 105.719 113.34C105.781 113.26 105.859 113.193 105.947 113.145C106.035 113.096 106.132 113.065 106.233 113.054C106.333 113.042 106.435 113.051 106.532 113.08C107.478 113.343 110.696 114.246 111.529 115.224C111.658 115.373 111.722 115.569 111.708 115.766C111.694 115.963 111.602 116.146 111.453 116.276C111.389 116.341 111.312 116.39 111.227 116.423C111.142 116.456 111.052 116.47 110.961 116.465Z" fill="#282928"/>
        <path d="M106.948 118.91L106.646 118.834L102.633 116.916C102.544 116.872 102.464 116.811 102.398 116.735C102.333 116.661 102.283 116.573 102.251 116.479C102.219 116.384 102.207 116.285 102.214 116.186C102.221 116.087 102.248 115.989 102.292 115.901C102.337 115.812 102.399 115.733 102.475 115.667C102.55 115.603 102.638 115.553 102.733 115.521C102.828 115.49 102.928 115.478 103.028 115.484C103.128 115.491 103.225 115.517 103.314 115.562L107.289 117.481C107.379 117.524 107.459 117.586 107.525 117.66C107.591 117.736 107.641 117.822 107.673 117.918C107.705 118.012 107.717 118.112 107.71 118.211C107.702 118.31 107.675 118.407 107.63 118.496C107.57 118.624 107.474 118.732 107.352 118.806C107.231 118.879 107.09 118.915 106.948 118.91Z" fill="#282928"/>
        <path d="M104.525 121.354L104.222 121.28C103.503 120.94 101.194 119.888 100.626 119.324C100.539 119.26 100.467 119.177 100.416 119.083C100.364 118.987 100.333 118.883 100.325 118.775C100.318 118.668 100.333 118.56 100.371 118.46C100.409 118.358 100.468 118.266 100.545 118.191C100.622 118.114 100.714 118.054 100.816 118.017C100.917 117.98 101.026 117.964 101.134 117.971C101.242 117.979 101.348 118.01 101.443 118.062C101.538 118.113 101.621 118.185 101.686 118.271C102.691 118.887 103.741 119.428 104.828 119.888C104.921 119.928 105.005 119.987 105.075 120.061C105.145 120.134 105.199 120.221 105.234 120.316C105.27 120.41 105.285 120.512 105.281 120.612C105.276 120.714 105.251 120.813 105.206 120.903C105.145 121.033 105.049 121.144 104.929 121.223C104.809 121.302 104.669 121.348 104.525 121.354Z" fill="#282928"/>
        <path d="M98.5825 115.977C98.4153 115.98 98.252 115.927 98.1207 115.823C97.9894 115.72 97.8984 115.575 97.8633 115.413C97.8345 115.316 97.8255 115.216 97.8367 115.116C97.8479 115.015 97.8792 114.919 97.9286 114.832C97.978 114.744 98.0445 114.667 98.1243 114.605C98.2041 114.544 98.2956 114.499 98.3932 114.473C99.6045 114.134 100.135 110.975 100.135 108.794C100.135 108.595 100.214 108.403 100.356 108.261C100.498 108.12 100.691 108.041 100.892 108.041C100.992 108.036 101.093 108.052 101.188 108.088C101.282 108.124 101.368 108.178 101.439 108.25C101.511 108.321 101.566 108.406 101.602 108.499C101.638 108.593 101.654 108.694 101.649 108.794C101.649 109.847 101.535 115.188 98.8096 115.939L98.5825 115.977Z" fill="#282928"/>
        <path d="M69.8509 89.4619L76.9298 96.7585L85.3334 101.535L79.8446 113.081C79.8446 113.081 56.7911 109.019 49.2959 100.594L55.0499 95.7428L69.8509 89.4619Z" fill="white"/>
        <path d="M79.9579 113.268H79.8066C79.5795 113.231 56.6018 109.131 49.1443 100.744L49.0308 100.593L54.974 95.6289L69.8886 89.2725L77.0431 96.6446L85.5982 101.496L79.9579 113.268ZM49.5608 100.593C56.7531 108.453 77.8002 112.478 79.7308 112.854L85.1062 101.609L76.8161 96.9072L69.8129 89.6861L55.1253 95.8928L49.5608 100.593Z" fill="white"/>
        <path d="M80.2987 113.871L79.731 113.796C61.9772 111.351 41.6493 98.7903 38.8481 90.8162C38.0532 88.5607 38.8102 87.1314 39.5673 86.3411C45.5862 80.023 79.0496 59.0366 82.57 58.1717C86.0905 57.3067 101.46 62.8353 103.201 63.4746C103.387 63.5502 103.537 63.6933 103.622 63.8747C103.706 64.0562 103.718 64.2626 103.655 64.4524C103.621 64.547 103.569 64.634 103.501 64.7082C103.433 64.7822 103.35 64.8422 103.259 64.8842C103.167 64.9263 103.068 64.9497 102.967 64.953C102.866 64.9564 102.765 64.9396 102.671 64.9037C96.0462 62.4591 85.2956 59.0366 82.9107 59.6384C79.6174 60.4658 46.3433 81.414 40.6651 87.3568C39.9459 88.1086 39.8323 89.0871 40.2487 90.3282C42.8607 97.6619 62.5451 109.696 79.3903 112.254L84.5763 101.422L77.0054 97.2854C76.2678 96.8841 75.623 96.3329 75.1127 95.6678C73.5607 93.712 68.1097 87.2057 62.8479 85.8519C62.7509 85.8296 62.6593 85.7887 62.5782 85.7317C62.4972 85.6748 62.4284 85.6017 62.3757 85.5175C62.3229 85.4345 62.2873 85.3403 62.2709 85.2437C62.2545 85.1459 62.2576 85.0456 62.28 84.9502C62.3335 84.752 62.4622 84.5836 62.6386 84.4783C62.8151 84.373 63.0258 84.3396 63.2264 84.3854C68.791 85.8519 74.2421 92.1328 76.3241 94.7661C76.7073 95.2541 77.1832 95.6628 77.7247 95.9688L86.5827 100.82L80.2987 113.871Z" fill="#282928"/>
        <path d="M115.2 87.3925C115.033 87.3962 114.87 87.3417 114.738 87.2389C114.607 87.1361 114.516 86.9912 114.481 86.8289C114.443 86.6778 111.377 72.9883 104.714 70.6565C104.531 70.5885 104.381 70.4527 104.297 70.2774C104.212 70.102 104.199 69.901 104.26 69.7163C104.321 69.5272 104.455 69.3698 104.632 69.2781C104.809 69.1866 105.016 69.1684 105.207 69.2275C112.702 71.8601 115.806 85.8888 115.957 86.4895C115.993 86.684 115.954 86.8834 115.849 87.0506C115.744 87.2178 115.58 87.3392 115.389 87.3925H115.2Z" fill="#282928"/>
        <path d="M115.201 87.3925C115.036 87.3962 114.876 87.3429 114.746 87.2426C114.594 87.1175 114.494 86.9391 114.466 86.7447C114.437 86.5502 114.484 86.3521 114.595 86.1898C114.936 85.7761 122.355 75.9974 127.579 74.6056C127.68 74.5579 127.79 74.5327 127.901 74.5321C128.013 74.5315 128.123 74.5553 128.223 74.6018C128.324 74.6484 128.414 74.7165 128.485 74.8014C128.558 74.8863 128.609 74.9858 128.637 75.0928C128.666 75.2 128.67 75.3119 128.65 75.4208C128.63 75.5297 128.585 75.6327 128.52 75.7227C128.455 75.8127 128.372 75.8871 128.275 75.9416C128.177 75.9949 128.069 76.0271 127.958 76.0345C123.264 77.314 115.882 87.0172 115.806 87.0915C115.741 87.1906 115.65 87.2699 115.544 87.3219C115.438 87.3751 115.319 87.3999 115.201 87.3925Z" fill="#282928"/>
        <path d="M108.349 67.0462H108.197C107.999 67.0011 107.826 66.8823 107.714 66.7145C107.601 66.5467 107.557 66.3424 107.592 66.1436C107.667 65.918 108.5 60.4646 97.8252 58.0199C95.6467 57.4819 93.4985 56.829 91.3899 56.0642C86.5445 54.3718 85.901 54.1461 78.4436 61.8185C78.3071 61.9614 78.1196 62.0455 77.9214 62.0526C77.7232 62.0595 77.5302 61.989 77.3837 61.8561C77.2454 61.7098 77.1652 61.5185 77.1582 61.3178C77.1512 61.1172 77.2179 60.9208 77.3458 60.7654C85.2574 52.6418 86.3931 52.717 91.882 54.6351C93.9357 55.3999 96.0342 56.0404 98.1659 56.5532C110.355 59.3738 109.144 66.1436 109.106 66.4445C109.07 66.6169 108.975 66.7716 108.837 66.8816C108.699 66.9915 108.526 67.0498 108.349 67.0462Z" fill="#282928"/>
        <path d="M96.6517 92.2061C96.4912 92.2049 96.3349 92.1541 96.2057 92.06C96.0764 91.9646 95.9806 91.8321 95.9325 91.6797C95.3269 89.8738 95.6297 82.5029 99.4909 79.5316C102.443 77.2377 102.292 75.6578 102.292 75.6202C102.259 75.518 102.248 75.4099 102.26 75.3031C102.272 75.1962 102.307 75.0933 102.362 75.001C102.418 74.9089 102.493 74.8295 102.581 74.7684C102.671 74.7072 102.772 74.6658 102.878 74.6469C102.985 74.6278 103.094 74.6318 103.199 74.6583C103.304 74.6848 103.402 74.7333 103.486 74.8006C103.57 74.868 103.639 74.9524 103.688 75.0483C103.737 75.1443 103.764 75.2496 103.768 75.357C103.844 75.6202 104.147 77.8396 100.399 80.7355C97.2952 83.1049 96.841 89.6113 97.3709 91.2276C97.406 91.3218 97.4209 91.4221 97.4147 91.5212C97.4084 91.6215 97.3813 91.7181 97.3349 91.8073C97.2885 91.8952 97.2241 91.9733 97.1455 92.0352C97.0669 92.0984 96.9761 92.143 96.8789 92.169L96.6517 92.2061Z" fill="#282928"/>
        <path d="M172.929 110.561C172.929 110.561 178.796 110.071 181.522 110.485C184.247 110.899 189.055 112.215 190.229 106.424C190.229 106.424 191.023 104.693 192.538 104.317C193.295 104.129 196.966 103.377 196.02 101.459C195.074 99.5408 193.711 95.8931 191.175 97.0215C190.077 97.5479 190.039 97.3968 190.039 97.3968C190.039 97.3968 186.746 95.6665 186.556 96.4567C186.367 97.2469 186.595 97.3212 186.405 97.1714C184.324 95.2912 184.437 97.3596 184.21 98.187C183.982 99.0144 183.982 101.046 183.982 102.06C183.999 102.267 183.946 102.473 183.829 102.643C183.711 102.816 183.538 102.941 183.339 103.001L171.756 106.725L172.929 110.561Z" fill="white"/>
        <path d="M185.004 111.612C184.038 111.598 183.075 111.498 182.128 111.311L181.409 111.198C178.834 110.86 173.042 111.311 172.966 111.311H172.36L170.808 106.197L183.074 102.247C183.188 102.247 183.225 102.134 183.225 102.059C183.156 100.688 183.245 99.3115 183.49 97.9602C183.528 97.8475 183.528 97.7348 183.565 97.5837C183.604 97.4338 183.793 95.966 184.626 95.7035C184.849 95.6254 185.089 95.5994 185.324 95.6254C185.56 95.6514 185.787 95.7295 185.989 95.8533C186.089 95.7245 186.218 95.6217 186.367 95.5523C187.011 95.2898 188.298 95.6279 190.153 96.6064L190.872 96.3054C193.787 94.9888 195.376 98.3739 196.361 100.367L196.701 101.081C196.85 101.345 196.931 101.64 196.937 101.942C196.944 102.243 196.876 102.542 196.739 102.812C196.172 104.053 194.354 104.616 192.84 104.993H192.727C191.742 105.218 191.099 106.31 190.947 106.611C190.077 110.747 187.427 111.612 185.004 111.612ZM178.607 109.581C179.618 109.567 180.629 109.618 181.635 109.732L182.392 109.845C185.762 110.371 188.638 110.484 189.471 106.271V106.121C189.547 106.046 190.456 104.053 192.311 103.601H192.461C194.543 103.074 195.187 102.586 195.339 102.247C195.37 102.181 195.382 102.108 195.376 102.035C195.369 101.963 195.342 101.893 195.3 101.833L194.96 101.081C193.673 98.4482 192.764 97.1328 191.478 97.7348C190.19 98.3355 190.039 98.2612 189.698 98.1484L189.396 98.0345C188.703 97.6753 187.981 97.3743 187.238 97.1328C187.239 97.2975 187.194 97.4586 187.107 97.5985C187.02 97.7385 186.895 97.8512 186.745 97.9218C186.605 97.9862 186.448 98.0085 186.294 97.9887C186.14 97.9689 185.995 97.9069 185.875 97.8091C185.666 97.596 185.423 97.4189 185.156 97.2827C185.084 97.4908 185.033 97.705 185.004 97.9218C184.966 98.1101 184.967 98.2983 184.929 98.4482C184.706 99.6645 184.63 100.902 184.701 102.134C184.717 102.501 184.611 102.861 184.399 103.161C184.186 103.461 183.881 103.681 183.528 103.789L172.702 107.211L173.459 109.769C174.481 109.693 176.6 109.581 178.607 109.581Z" fill="#282928"/>
        <path d="M187.313 104.994C187.146 104.998 186.982 104.944 186.851 104.841C186.721 104.738 186.63 104.593 186.593 104.43C186.367 103.641 185.383 101.347 184.058 101.233C183.857 101.213 183.672 101.115 183.544 100.96C183.417 100.804 183.356 100.605 183.376 100.405C183.396 100.206 183.495 100.023 183.651 99.8963C183.807 99.7687 184.008 99.7093 184.209 99.7291C186.746 99.9545 187.919 103.602 188.032 104.016C188.092 104.205 188.073 104.411 187.981 104.587C187.889 104.763 187.73 104.897 187.54 104.957L187.313 104.994Z" fill="#282928"/>
        <path d="M183.83 96.079C183.83 96.079 185.004 91.6411 186.367 92.2059C187.73 92.7695 187.881 96.2673 187.881 96.2673C187.881 96.2673 187.124 98.5624 183.83 96.079Z" fill="white"/>
        <path d="M186.443 97.9995C185.573 97.9995 184.512 97.5487 183.376 96.6829L182.96 96.3447L183.112 95.8939C183.339 95.0281 184.172 92.2078 185.458 91.5687C185.64 91.4783 185.839 91.4275 186.042 91.4213C186.244 91.4151 186.446 91.4523 186.633 91.5303C188.336 92.245 188.601 95.5545 188.639 96.232V96.3447L188.562 96.4946C188.444 96.8204 188.253 97.1139 188.004 97.3542C187.755 97.5957 187.454 97.7778 187.125 97.8868C186.904 97.9599 186.675 97.9983 186.443 97.9995ZM184.702 95.7812C185.837 96.533 186.443 96.533 186.709 96.4575C186.882 96.3968 187.029 96.2766 187.125 96.1193C187.01 94.7655 186.594 93.2235 186.103 92.9597C185.61 92.6971 185.118 94.4262 184.702 95.7812Z" fill="#282928"/>
        <path d="M190.986 105.071C190.837 105.078 190.692 105.038 190.569 104.958C190.446 104.876 190.353 104.757 190.304 104.619C189.244 102.136 186.859 98.075 184.967 97.774C184.771 97.7369 184.599 97.6267 184.486 97.4644C184.372 97.3021 184.327 97.1027 184.361 96.9083C184.375 96.8092 184.408 96.7138 184.46 96.6283C184.512 96.5416 184.579 96.4673 184.661 96.4066C184.743 96.3472 184.835 96.3051 184.932 96.2815C185.03 96.258 185.131 96.253 185.231 96.2691C188.525 96.8339 191.364 103.302 191.666 104.017C191.711 104.108 191.736 104.207 191.741 104.308C191.746 104.409 191.73 104.51 191.695 104.605C191.659 104.699 191.605 104.786 191.536 104.86C191.466 104.933 191.381 104.993 191.289 105.032L190.986 105.071Z" fill="#282928"/>
        <path d="M193.9 104.693C193.745 104.689 193.595 104.642 193.467 104.555C193.34 104.468 193.24 104.346 193.181 104.203C191.97 101.195 190.494 98.4487 189.888 98.149C189.793 98.1341 189.701 98.1019 189.62 98.0524C189.537 98.0041 189.465 97.9384 189.409 97.8616C189.353 97.7848 189.312 97.6969 189.291 97.604C189.268 97.5111 189.266 97.4145 189.282 97.3216C189.291 97.2238 189.321 97.1284 189.368 97.0429C189.415 96.9562 189.48 96.8819 189.559 96.8212C189.636 96.7618 189.726 96.7184 189.822 96.6936C189.918 96.6701 190.017 96.6652 190.115 96.6813C191.591 96.8695 193.37 100.593 194.582 103.677C194.656 103.861 194.655 104.068 194.577 104.252C194.499 104.435 194.351 104.58 194.165 104.655L193.9 104.693Z" fill="#282928"/>
        <path d="M49.788 204.734H62.0907C64.6309 204.734 67.1463 205.231 69.4932 206.197C71.84 207.163 73.9725 208.579 75.7688 210.363C77.565 212.147 78.9898 214.267 79.9619 216.598C80.934 218.93 81.4344 221.428 81.4344 223.952V270.25C81.4344 271.476 80.9438 272.653 80.0706 273.521C79.1974 274.388 78.0132 274.876 76.7782 274.876H35.1004C33.8656 274.876 32.6812 274.388 31.8081 273.521C30.9349 272.653 30.4443 271.476 30.4443 270.25V223.952C30.4443 218.856 32.4823 213.967 36.1099 210.363C39.7376 206.759 44.6577 204.734 49.788 204.734Z" fill="#282928"/>
        <path d="M76.7783 275.064H35.1005C33.8219 275.054 32.5992 274.543 31.6987 273.641C30.7982 272.739 30.2928 271.519 30.293 270.25V223.952C30.293 218.812 32.3456 213.881 36.0006 210.243C39.6556 206.604 44.6142 204.556 49.788 204.546H62.0907C67.2681 204.556 72.2306 206.603 75.8915 210.241C79.5525 213.879 81.6136 218.808 81.6237 223.952V270.25C81.6137 271.523 81.1001 272.742 80.1935 273.642C79.287 274.544 78.0604 275.054 76.7783 275.064ZM49.788 204.922C44.7145 204.932 39.8523 206.941 36.2682 210.508C32.6843 214.077 30.6715 218.911 30.6715 223.952V270.25C30.6715 271.42 31.1368 272.544 31.9664 273.375C32.7959 274.206 33.9224 274.678 35.1005 274.688H76.7783C77.963 274.688 79.0991 274.219 79.9369 273.387C80.7745 272.556 81.2451 271.426 81.2451 270.25V223.952C81.2351 218.909 79.2139 214.073 75.6239 210.507C72.0339 206.94 67.1677 204.932 62.0907 204.922H49.788Z" fill="#282928"/>
        <path d="M47.403 206.652C47.2946 206.655 47.1871 206.631 47.0887 206.585C46.9905 206.541 46.9037 206.472 46.8353 206.389C46.7595 206.314 45.2454 204.434 45.9267 202.515C46.6081 200.598 47.9331 200.109 50.4314 199.582C55.6176 198.491 60.69 199.168 63.2641 201.237C63.922 201.751 64.4521 202.407 64.8131 203.158C65.1741 203.909 65.3565 204.731 65.3462 205.562C65.3462 205.762 65.2664 205.952 65.1244 206.093C64.9824 206.235 64.7898 206.314 64.5891 206.314C64.3882 206.314 64.1956 206.235 64.0537 206.093C63.9117 205.952 63.832 205.762 63.832 205.562C63.8467 204.954 63.7174 204.352 63.4543 203.803C63.1913 203.253 62.802 202.774 62.3178 202.402C60.0465 200.598 55.504 200.071 50.7342 201.049C48.8036 201.462 47.6681 202.14 47.3273 203.004C46.9866 203.869 48.0088 205.411 48.0088 205.411C48.0756 205.485 48.126 205.573 48.1566 205.669C48.1873 205.764 48.1976 205.864 48.1869 205.963C48.1762 206.062 48.1448 206.158 48.0945 206.245C48.0443 206.331 47.9764 206.406 47.8952 206.465C47.8311 206.528 47.7542 206.579 47.6694 206.611C47.5845 206.643 47.4938 206.657 47.403 206.652Z" fill="#DBB3FF"/>
        <path d="M70.5696 249.452H41.4595C38.9508 249.452 36.917 251.473 36.917 253.965V266.535C36.917 269.027 38.9508 271.048 41.4595 271.048H70.5696C73.0784 271.048 75.1122 269.027 75.1122 266.535V253.965C75.1122 251.473 73.0784 249.452 70.5696 249.452Z" fill="white"/>
        <path d="M70.57 271.793H41.4599C40.0544 271.793 38.7064 271.238 37.7125 270.251C36.7187 269.264 36.1603 267.923 36.1603 266.527V253.966C36.1552 253.273 36.2888 252.586 36.5534 251.944C36.818 251.304 37.2081 250.722 37.7013 250.231C38.1944 249.742 38.7807 249.354 39.4259 249.091C40.0711 248.828 40.7625 248.695 41.4599 248.7H70.57C71.9755 248.7 73.3236 249.255 74.3174 250.242C75.3114 251.23 75.8696 252.57 75.8696 253.966V266.527C75.8696 267.923 75.3114 269.264 74.3174 270.251C73.3236 271.238 71.9755 271.793 70.57 271.793ZM41.4599 250.205C40.9613 250.2 40.4669 250.293 40.0053 250.48C39.5438 250.668 39.1245 250.945 38.7719 251.295C38.4194 251.646 38.1408 252.062 37.9523 252.52C37.7639 252.978 37.6694 253.47 37.6745 253.966V266.527C37.6745 267.525 38.0733 268.481 38.7832 269.187C39.4931 269.892 40.4559 270.288 41.4599 270.288H70.57C71.0672 270.288 71.5594 270.191 72.0187 270.002C72.4779 269.813 72.8952 269.536 73.2468 269.187C73.5983 268.837 73.8771 268.423 74.0673 267.967C74.2575 267.51 74.3555 267.022 74.3555 266.527V253.966C74.3555 253.471 74.2575 252.982 74.0673 252.526C73.8771 252.071 73.5983 251.656 73.2468 251.306C72.8952 250.957 72.4779 250.68 72.0187 250.491C71.5594 250.302 71.0672 250.205 70.57 250.205H41.4599Z" fill="#282928"/>
        <path d="M70.835 258.592H41.0813C40.9787 258.592 40.877 258.571 40.7826 258.531C40.6882 258.491 40.6029 258.432 40.5321 258.358C40.4613 258.285 40.4063 258.197 40.3706 258.101C40.3349 258.006 40.3191 257.903 40.3242 257.802C40.3241 257.705 40.3439 257.608 40.3824 257.519C40.4208 257.43 40.4773 257.349 40.5481 257.283C40.6189 257.216 40.7028 257.164 40.7944 257.13C40.8862 257.097 40.9837 257.082 41.0813 257.087H70.835C70.9358 257.082 71.0367 257.098 71.1311 257.134C71.2254 257.17 71.3111 257.224 71.3825 257.295C71.4538 257.367 71.5094 257.451 71.5456 257.545C71.5817 257.639 71.5976 257.74 71.5921 257.84C71.5921 258.039 71.5123 258.23 71.3703 258.371C71.2283 258.513 71.0358 258.592 70.835 258.592Z" fill="#282928"/>
        <path d="M55.2389 239.222C51.6894 239.234 48.1487 238.869 44.6775 238.132C35.4788 236.213 30.0278 232.452 29.8007 232.302C29.635 232.187 29.522 232.012 29.4865 231.814C29.451 231.617 29.4958 231.414 29.6114 231.249C29.7268 231.084 29.9034 230.972 30.1021 230.937C30.3009 230.901 30.5056 230.946 30.6713 231.061C30.747 231.098 36.1601 234.821 45.056 236.664C53.2326 238.395 66.141 238.845 81.1314 231.211C81.312 231.121 81.5212 231.107 81.713 231.17C81.9046 231.234 82.063 231.37 82.1534 231.55C82.2438 231.73 82.2586 231.938 82.1948 232.127C82.1309 232.318 81.9935 232.475 81.8127 232.566C71.8192 237.643 62.7341 239.222 55.2389 239.222Z" fill="white"/>
        <path d="M71.5167 263.218L69.8132 263.029C69.7261 263.023 69.6417 262.996 69.5665 262.953C69.4913 262.908 69.4274 262.847 69.3799 262.774C69.3322 262.701 69.3021 262.618 69.292 262.533C69.2818 262.446 69.2917 262.359 69.3212 262.278L70.5324 257.539C70.5753 257.406 70.6627 257.293 70.78 257.218C70.8973 257.142 71.0372 257.109 71.1759 257.125H71.2138C71.3515 257.134 71.4811 257.192 71.5787 257.288C71.6762 257.385 71.7349 257.514 71.7438 257.651L72.1602 262.578C72.1729 262.665 72.165 262.753 72.1371 262.837C72.1093 262.92 72.0623 262.996 71.9997 263.058C71.9373 263.12 71.8611 263.167 71.7772 263.194C71.6933 263.223 71.6042 263.23 71.5167 263.218Z" fill="#DBB3FF"/>
        <path d="M71.5543 263.406H71.4785L69.813 263.218C69.6994 263.205 69.5898 263.168 69.4918 263.11C69.3938 263.052 69.3097 262.973 69.2451 262.878C69.1704 262.792 69.1206 262.688 69.1006 262.575C69.0807 262.462 69.0913 262.347 69.1315 262.239L70.3808 257.5C70.4257 257.322 70.5354 257.165 70.689 257.061C70.8425 256.957 71.0292 256.913 71.2136 256.937C71.4013 256.946 71.579 257.024 71.712 257.156C71.8449 257.289 71.9236 257.465 71.9328 257.652L72.3492 262.54C72.3615 262.657 72.3474 262.776 72.3082 262.886C72.2689 262.996 72.2053 263.096 72.122 263.179C72.0485 263.255 71.9599 263.313 71.8621 263.353C71.7644 263.391 71.6595 263.41 71.5543 263.406ZM71.1378 257.313C71.0445 257.31 70.9528 257.337 70.8772 257.391C70.8017 257.446 70.7468 257.524 70.7214 257.613L69.5101 262.315C69.4857 262.369 69.4764 262.43 69.4831 262.49C69.4897 262.549 69.5121 262.605 69.5479 262.653C69.579 262.708 69.6228 262.752 69.6757 262.786C69.7284 262.818 69.7886 262.838 69.8509 262.841L71.5164 263.03C71.5779 263.035 71.6398 263.027 71.6984 263.009C71.757 262.989 71.811 262.958 71.8571 262.917C71.9286 262.818 71.9681 262.7 71.9707 262.579L71.5543 257.689C71.5595 257.642 71.5548 257.593 71.5401 257.548C71.5254 257.502 71.5011 257.461 71.4689 257.425C71.4367 257.389 71.3973 257.361 71.3533 257.342C71.3093 257.322 71.2617 257.312 71.2136 257.313H71.1378Z" fill="#DBB3FF"/>
        <path d="M55.5794 228.615C51.4533 228.615 48.3871 227.638 46.4186 225.682C43.8066 223.087 43.8445 219.514 44.1095 217.634C44.1654 217.164 44.3932 216.733 44.7493 216.421C45.1055 216.109 45.565 215.938 46.04 215.94H46.0779L65.5351 216.092C66.008 216.109 66.4607 216.287 66.8185 216.594C67.1763 216.902 67.4179 217.322 67.5036 217.784C67.7685 219.965 68.1093 227.186 60.0084 228.314C58.5392 228.501 57.0604 228.601 55.5794 228.615ZM46.04 217.445C45.9317 217.444 45.8262 217.481 45.7429 217.549C45.6597 217.619 45.6039 217.715 45.5859 217.822C45.3587 219.438 45.3208 222.485 47.4785 224.629C49.6363 226.772 53.9138 227.599 59.8192 226.81C65.7244 226.02 66.3679 220.906 65.9894 218.009C65.9725 217.9 65.9181 217.798 65.8356 217.723C65.7529 217.648 65.647 217.603 65.5351 217.595L46.04 217.445Z" fill="white"/>
        <path d="M57.851 227.375C57.851 226.378 57.046 225.57 56.053 225.57C55.0599 225.57 54.2549 226.378 54.2549 227.375V230.933C54.2549 231.931 55.0599 232.738 56.053 232.738C57.046 232.738 57.851 231.931 57.851 230.933V227.375Z" fill="white"/>
        <path d="M56.0337 232.94C55.772 232.94 55.5129 232.888 55.2716 232.788C55.0302 232.688 54.8116 232.54 54.6283 232.354C54.4449 232.169 54.3008 231.949 54.2041 231.707C54.1075 231.465 54.0602 231.207 54.0653 230.947V227.374C54.0602 227.114 54.1075 226.856 54.2041 226.615C54.3008 226.373 54.4449 226.153 54.6283 225.967C54.8116 225.781 55.0302 225.634 55.2716 225.533C55.5129 225.433 55.772 225.381 56.0337 225.381C56.5659 225.381 57.0761 225.592 57.4524 225.964C57.8286 226.338 58.0401 226.845 58.0401 227.374V230.947C58.0401 231.476 57.8286 231.983 57.4524 232.357C57.0761 232.731 56.5659 232.94 56.0337 232.94ZM56.0337 225.758C55.8217 225.758 55.6118 225.8 55.4165 225.88C55.221 225.962 55.0441 226.082 54.8958 226.233C54.7477 226.383 54.6314 226.563 54.5538 226.758C54.4762 226.954 54.4388 227.163 54.4438 227.374V230.947C54.4082 231.178 54.423 231.413 54.4874 231.637C54.5519 231.861 54.6645 232.069 54.8173 232.247C54.97 232.422 55.1596 232.565 55.3728 232.663C55.586 232.759 55.818 232.81 56.0526 232.81C56.2874 232.81 56.5193 232.759 56.7324 232.663C56.9457 232.565 57.1352 232.422 57.2881 232.247C57.4409 232.069 57.5534 231.861 57.6178 231.637C57.6823 231.413 57.6971 231.178 57.6615 230.947V227.374C57.6615 226.945 57.49 226.534 57.1847 226.231C56.8794 225.927 56.4654 225.758 56.0337 225.758Z" fill="white"/>
        <path d="M55.9581 231.513C56.4808 231.513 56.9044 231.16 56.9044 230.724C56.9044 230.288 56.4808 229.934 55.9581 229.934C55.4355 229.934 55.0117 230.288 55.0117 230.724C55.0117 231.16 55.4355 231.513 55.9581 231.513Z" fill="#282928"/>
        <path d="M55.9583 231.738C55.7625 231.716 55.5771 231.638 55.4246 231.514C55.2722 231.39 55.159 231.226 55.0987 231.039C55.0385 230.853 55.0338 230.653 55.085 230.464C55.1364 230.276 55.2416 230.105 55.3881 229.973C55.5346 229.843 55.716 229.757 55.9106 229.726C56.1052 229.695 56.3045 229.721 56.4848 229.8C56.6651 229.879 56.8184 230.008 56.9265 230.171C57.0346 230.335 57.0927 230.527 57.0939 230.723C57.0892 230.864 57.0558 231.004 56.9955 231.131C56.9353 231.26 56.8497 231.375 56.7436 231.471C56.6376 231.565 56.5133 231.638 56.3784 231.684C56.2434 231.73 56.1006 231.748 55.9583 231.738ZM55.9583 230.121C55.8707 230.11 55.7819 230.118 55.6975 230.143C55.613 230.168 55.5346 230.21 55.4671 230.267C55.3997 230.323 55.3447 230.392 55.3054 230.471C55.2662 230.549 55.2436 230.635 55.239 230.723C55.2439 230.812 55.2663 230.899 55.3051 230.979C55.344 231.06 55.3983 231.131 55.4651 231.191C55.5318 231.25 55.6099 231.295 55.6945 231.325C55.7792 231.354 55.8688 231.367 55.9583 231.362C56.1431 231.373 56.3248 231.312 56.4658 231.193C56.6068 231.073 56.6962 230.905 56.7153 230.723C56.7059 230.633 56.6789 230.547 56.6356 230.469C56.5924 230.389 56.5338 230.32 56.4633 230.264C56.3929 230.209 56.312 230.167 56.2254 230.142C56.1386 230.117 56.0478 230.11 55.9583 230.121Z" fill="#282928"/>
        <path d="M31.3148 225.684C31.1343 225.679 30.9609 225.612 30.8234 225.495C30.6857 225.38 30.592 225.22 30.5577 225.044C30.4441 224.33 27.6808 207.293 33.7375 202.253C35.4409 200.861 37.2579 200.297 39.1128 200.56C42.8604 201.162 45.3967 205.073 45.5102 205.224C45.6098 205.4 45.638 205.607 45.5887 205.803C45.5394 205.999 45.4165 206.168 45.2453 206.277C45.0784 206.378 44.879 206.41 44.6887 206.368C44.4982 206.325 44.3315 206.213 44.2232 206.052C44.1853 206.013 41.9519 202.516 38.8857 202.065C37.4473 201.839 36.0467 202.29 34.7217 203.419C29.3086 207.894 32.034 224.631 32.0719 224.818C32.088 224.917 32.084 225.018 32.0602 225.116C32.0364 225.213 31.9933 225.305 31.9333 225.385C31.8733 225.466 31.7978 225.534 31.7111 225.584C31.6244 225.636 31.5282 225.67 31.4284 225.684H31.3148Z" fill="#282928"/>
        <path d="M34.2298 217.035C34.1322 217.04 34.0346 217.025 33.9429 216.992C33.8512 216.958 33.7675 216.906 33.6965 216.84C33.6257 216.773 33.5694 216.692 33.5308 216.603C33.4923 216.514 33.4726 216.417 33.4727 216.321C33.4727 216.132 33.2077 211.733 34.7598 207.482C35.3275 205.94 36.2361 205 37.4474 204.662C39.8701 204.022 42.5199 206.128 42.6335 206.204C42.7883 206.329 42.8872 206.51 42.9084 206.707C42.9297 206.905 42.8717 207.102 42.7471 207.256C42.621 207.41 42.439 207.509 42.2404 207.53C42.042 207.551 41.8431 207.493 41.6872 207.369C41.0814 206.881 39.2266 205.714 37.8639 206.128C37.1068 206.316 36.5768 206.918 36.1982 208.01C34.7598 211.958 34.9868 216.208 34.9868 216.245C34.9919 216.344 34.9773 216.443 34.9439 216.536C34.9105 216.629 34.859 216.716 34.7922 216.789C34.7254 216.862 34.6446 216.921 34.5546 216.963C34.4646 217.007 34.3671 217.03 34.2676 217.035H34.2298Z" fill="#282928"/>
        <path d="M23.8575 276.567C18.4821 276.567 13.7881 275.289 12.8039 273.295C12.3118 272.355 12.3118 270.851 15.0752 269.234C22.9868 264.57 30.8227 253.776 30.8984 253.663C31.0188 253.498 31.2002 253.388 31.4025 253.357C31.6049 253.325 31.8116 253.375 31.9772 253.493C32.1429 253.614 32.2539 253.794 32.2858 253.995C32.3178 254.196 32.2681 254.401 32.1475 254.566C31.807 255.017 24.0088 265.699 15.8702 270.512C15.2267 270.888 13.7881 271.867 14.1667 272.619C15.2644 274.837 26.2801 276.455 34.3053 273.221C34.3993 273.177 34.5011 273.154 34.6045 273.153C34.7079 273.15 34.8107 273.169 34.9064 273.207C35.0022 273.247 35.0889 273.304 35.1614 273.378C35.2338 273.451 35.2903 273.538 35.3274 273.634C35.3926 273.819 35.3863 274.022 35.3092 274.203C35.2323 274.384 35.0903 274.53 34.911 274.612C31.5419 275.965 27.5294 276.567 23.8575 276.567Z" fill="#282928"/>
        <path d="M24.6906 272.17C23.3656 272.17 22.2678 272.019 21.7758 271.605C21.624 271.49 21.5007 271.342 21.4155 271.173C21.3302 271.003 21.2851 270.817 21.2837 270.628C21.2837 269.311 23.4035 267.167 28.1731 262.879C29.3845 261.752 30.7852 260.473 31.0123 260.134C31.1017 259.963 31.2513 259.83 31.4326 259.76C31.6139 259.691 31.8145 259.691 31.9964 259.758C32.1819 259.833 32.3299 259.978 32.4079 260.162C32.486 260.345 32.4877 260.552 32.4129 260.736C32.2236 261.224 31.4665 261.902 29.1953 263.97C26.924 266.039 23.2521 269.348 22.8357 270.514C23.7442 270.928 28.0596 270.589 32.5264 269.725C32.6234 269.703 32.7239 269.699 32.822 269.715C32.9201 269.732 33.0141 269.767 33.0984 269.819C33.1827 269.872 33.2559 269.94 33.3137 270.021C33.3714 270.101 33.4126 270.193 33.435 270.288C33.4691 270.488 33.4254 270.692 33.3128 270.859C33.2002 271.028 33.0272 271.147 32.8293 271.191C31.3151 271.492 27.4918 272.17 24.6906 272.17Z" fill="#282928"/>
        <path d="M136.853 110.824C136.679 110.835 136.506 110.778 136.372 110.667C136.238 110.554 136.154 110.395 136.134 110.223C136.1 110.034 136.14 109.839 136.245 109.678C136.351 109.517 136.514 109.402 136.702 109.357L170.165 102.927C170.361 102.893 170.562 102.938 170.725 103.05C170.887 103.163 170.999 103.334 171.035 103.529C171.069 103.723 171.024 103.922 170.911 104.083C170.797 104.246 170.625 104.356 170.431 104.393L137.005 110.824H136.853Z" fill="#282928"/>
        <path d="M151.957 246.294H151.844C151.745 246.284 151.649 246.255 151.563 246.208C151.476 246.161 151.401 246.097 151.34 246.019C151.28 245.941 151.237 245.851 151.212 245.757C151.188 245.662 151.183 245.563 151.199 245.466C151.541 242.57 152.071 237.831 152.071 237.455C152.088 237.265 152.176 237.088 152.314 236.957C152.454 236.826 152.636 236.749 152.828 236.74H152.865C152.963 236.74 153.059 236.76 153.149 236.798C153.239 236.837 153.32 236.893 153.387 236.963C153.455 237.033 153.507 237.117 153.541 237.207C153.576 237.299 153.589 237.395 153.584 237.492C153.584 237.869 152.904 243.811 152.677 245.616C152.667 245.799 152.587 245.972 152.452 246.098C152.319 246.223 152.142 246.294 151.957 246.294Z" fill="#282928"/>
        <path d="M199.313 96.4553C199.175 96.4566 199.04 96.4083 198.936 96.3179C198.831 96.2274 198.764 96.1023 198.745 95.9661C198.722 95.8224 198.757 95.675 198.842 95.5561C198.927 95.4372 199.055 95.3542 199.199 95.327L209.268 93.7849C209.414 93.7626 209.562 93.7973 209.682 93.8815C209.802 93.9658 209.884 94.0933 209.913 94.237C209.929 94.3113 209.929 94.3894 209.913 94.4637C209.895 94.538 209.863 94.6086 209.815 94.6693C209.769 94.7312 209.709 94.7808 209.641 94.8167C209.572 94.8514 209.497 94.8724 209.42 94.8761L199.388 96.4182L199.313 96.4553Z" fill="white"/>
        <path d="M200.07 100.745C199.926 100.745 199.787 100.69 199.681 100.593C199.576 100.495 199.512 100.361 199.503 100.219C199.502 100.071 199.554 99.9275 199.653 99.8173C199.75 99.7058 199.886 99.6352 200.033 99.6166L210.366 99.0902C210.441 99.0853 210.516 99.0939 210.587 99.1175C210.658 99.1422 210.723 99.1794 210.779 99.2277C210.836 99.2772 210.881 99.3367 210.915 99.4036C210.949 99.4692 210.967 99.5423 210.972 99.6166C210.984 99.6909 210.977 99.7677 210.956 99.8408C210.934 99.9139 210.897 99.9808 210.846 100.038C210.797 100.096 210.734 100.141 210.664 100.173C210.595 100.204 210.518 100.219 210.442 100.219L200.108 100.745H200.07Z" fill="white"/>
        <path d="M199.692 93.6369C199.537 93.6332 199.387 93.5861 199.259 93.4994C199.131 93.4115 199.032 93.2901 198.973 93.1476L197.421 88.7097C197.36 88.5252 197.372 88.3245 197.457 88.1486C197.542 87.974 197.691 87.8378 197.875 87.7696C197.969 87.7337 198.07 87.7164 198.171 87.7201C198.271 87.7238 198.371 87.7474 198.463 87.7895C198.554 87.8316 198.636 87.891 198.705 87.9653C198.772 88.0397 198.826 88.1264 198.86 88.2205L200.412 92.6584C200.47 92.8479 200.453 93.0535 200.361 93.2294C200.268 93.4053 200.109 93.539 199.919 93.5985L199.692 93.6369Z" fill="#DBB3FF"/>
        <path d="M196.588 89.5373C196.429 89.5311 196.275 89.4778 196.147 89.3837C196.019 89.2896 195.921 89.1595 195.869 89.0109C195.809 88.8214 195.828 88.6158 195.92 88.4399C196.012 88.264 196.171 88.1315 196.361 88.0708L199.73 86.9053C199.822 86.8694 199.919 86.8533 200.018 86.857C200.116 86.8607 200.212 86.8842 200.302 86.9263C200.391 86.9684 200.469 87.0291 200.534 87.1022C200.599 87.1765 200.646 87.2632 200.676 87.3561C200.712 87.4503 200.73 87.5493 200.726 87.6497C200.722 87.75 200.699 87.8491 200.656 87.9395C200.614 88.0312 200.554 88.1129 200.479 88.181C200.404 88.2479 200.317 88.2999 200.222 88.3334L196.853 89.4617L196.588 89.5373Z" fill="#DBB3FF"/>
        <path d="M206.089 92.433C205.889 92.433 205.697 92.3538 205.554 92.2126C205.412 92.0714 205.333 91.8806 205.333 91.6812V86.9795C205.333 86.7801 205.412 86.5893 205.554 86.4481C205.697 86.3069 205.889 86.2277 206.089 86.2277C206.29 86.2277 206.483 86.3069 206.624 86.4481C206.766 86.5893 206.846 86.7801 206.846 86.9795V91.6812C206.852 91.7815 206.836 91.8819 206.8 91.9748C206.764 92.0689 206.709 92.1544 206.637 92.225C206.565 92.2956 206.479 92.3513 206.386 92.3872C206.291 92.4231 206.19 92.438 206.089 92.433Z" fill="#DBB3FF"/>
        <path d="M204.5 87.5046C204.401 87.5096 204.304 87.496 204.212 87.4613C204.121 87.4278 204.037 87.3758 203.966 87.3089C203.895 87.2433 203.839 87.1615 203.8 87.0724C203.762 86.9832 203.742 86.8878 203.742 86.79C203.737 86.6884 203.753 86.5868 203.788 86.4915C203.824 86.3948 203.879 86.3081 203.95 86.2338C204.021 86.1608 204.106 86.1013 204.2 86.0617C204.295 86.0208 204.396 86.001 204.5 86.001H208.095C208.296 86.001 208.489 86.0803 208.631 86.2215C208.773 86.3627 208.852 86.5534 208.852 86.7528C208.852 86.9522 208.773 87.1442 208.631 87.2842C208.489 87.4254 208.296 87.5046 208.095 87.5046H204.5Z" fill="#DBB3FF"/>
        <path d="M200.524 108.905H200.373C200.179 108.868 200.005 108.757 199.892 108.596C199.778 108.433 199.734 108.234 199.767 108.039L200.524 103.415C200.561 103.22 200.674 103.049 200.836 102.936C200.999 102.824 201.2 102.779 201.395 102.813C201.59 102.849 201.763 102.96 201.875 103.122C201.989 103.283 202.034 103.483 202.001 103.677L201.243 108.303C201.216 108.473 201.129 108.627 200.996 108.737C200.864 108.847 200.697 108.908 200.524 108.905Z" fill="#DBB3FF"/>
        <path d="M202.455 109.47H202.342L198.821 108.943C198.721 108.928 198.627 108.895 198.541 108.843C198.455 108.792 198.379 108.724 198.319 108.643C198.26 108.563 198.217 108.471 198.192 108.375C198.168 108.278 198.163 108.178 198.178 108.079C198.193 107.98 198.228 107.884 198.279 107.799C198.331 107.713 198.399 107.639 198.48 107.58C198.561 107.52 198.653 107.477 198.75 107.453C198.847 107.428 198.95 107.425 199.048 107.44L202.569 108.003C202.668 108.017 202.766 108.05 202.852 108.101C202.939 108.153 203.014 108.221 203.074 108.302C203.133 108.382 203.177 108.474 203.201 108.57C203.224 108.668 203.228 108.77 203.213 108.868C203.177 109.041 203.082 109.196 202.944 109.305C202.806 109.415 202.632 109.473 202.455 109.47Z" fill="#DBB3FF"/>
        <path d="M208.587 109.019C208.405 109.022 208.228 108.957 208.089 108.84C207.949 108.723 207.858 108.56 207.831 108.38L207.035 103.791C207.019 103.692 207.024 103.592 207.048 103.494C207.071 103.396 207.114 103.304 207.174 103.224C207.234 103.143 207.31 103.076 207.397 103.024C207.483 102.974 207.579 102.94 207.679 102.927C207.874 102.893 208.075 102.938 208.238 103.05C208.402 103.163 208.513 103.334 208.55 103.529L209.307 108.155C209.34 108.348 209.296 108.547 209.182 108.71C209.069 108.872 208.897 108.982 208.701 109.019H208.587Z" fill="#DBB3FF"/>
        <path d="M207.074 109.507C206.974 109.514 206.875 109.502 206.78 109.471C206.685 109.44 206.598 109.39 206.522 109.326C206.37 109.196 206.275 109.01 206.26 108.811C206.245 108.611 206.31 108.414 206.442 108.262C206.573 108.111 206.76 108.017 206.961 108.002L210.481 107.4C210.663 107.393 210.843 107.452 210.985 107.565C211.128 107.679 211.224 107.84 211.257 108.019C211.289 108.198 211.255 108.382 211.161 108.538C211.067 108.694 210.92 108.811 210.745 108.867L207.225 109.507H207.074Z" fill="#DBB3FF"/>
    </g>
    <defs>
        <clipPath id="clip0_7476_63728">
            <rect width="252" height="303" fill="white"/>
        </clipPath>
    </defs>
</svg>
